STARTFONT 2.1
COMMENT
COMMENT Converted from OpenType font "novamono.ttf" by "otf2bdf 3.0".
COMMENT
FONT -FreeType-NovaMono-Medium-R-Normal--98-840-84-84-P-243-ISO10646-1
SIZE 84 84 84
FONTBOUNDINGBOX 312 79 0 -15
STARTPROPERTIES 19
FOUNDRY "FreeType"
FAMILY_NAME "NovaMono"
WEIGHT_NAME "Medium"
SLANT "R"
SETWIDTH_NAME "Normal"
ADD_STYLE_NAME ""
PIXEL_SIZE 98
POINT_SIZE 840
RESOLUTION_X 84
RESOLUTION_Y 84
SPACING "P"
AVERAGE_WIDTH 243
CHARSET_REGISTRY "ISO10646"
CHARSET_ENCODING "1"
FONT_ASCENT 64
FONT_DESCENT 15
COPYRIGHT "Copyright fontcollector 2009  NovaMono is based on PortraitTextMono by fontcollector (http://fontstruct.com/fontstructors/fontcollector), which is based on PortraitMono by fontcollector (http://fontstruct.com/fontstructors/fontcollector)"
_OTF_FONTFILE "novamono.ttf"
_OTF_PSNAME "NovaMono"
ENDPROPERTIES
CHARS 195
STARTCHAR 0000
ENCODING 0
SWIDTH 285 0
DWIDTH 28 0
BBX 0 0 0 0
BITMAP
ENDCHAR
STARTCHAR 000D
ENCODING 13
SWIDTH 0 0
DWIDTH 0 0
BBX 0 0 0 0
BITMAP
ENDCHAR
STARTCHAR 0020
ENCODING 32
SWIDTH 285 0
DWIDTH 28 0
BBX 0 0 0 0
BITMAP
ENDCHAR
STARTCHAR 0021
ENCODING 33
SWIDTH 285 0
DWIDTH 28 0
BBX 6 43 9 0
BITMAP
FC
FC
FC
FC
FC
FC
FC
FC
FC
FC
FC
FC
FC
FC
FC
FC
FC
FC
FC
FC
FC
FC
FC
FC
FC
FC
FC
FC
FC
FC
FC
00
00
00
00
00
00
FC
FC
FC
FC
FC
FC
ENDCHAR
STARTCHAR 0022
ENCODING 34
SWIDTH 285 0
DWIDTH 28 0
BBX 15 15 3 28
BITMAP
FC7E
FC7E
FC7E
FC7E
FC7E
FC7E
1C0E
380E
381C
701C
7038
E078
E070
C070
C060
ENDCHAR
STARTCHAR 0023
ENCODING 35
SWIDTH 285 0
DWIDTH 28 0
BBX 25 25 0 18
BITMAP
1F81F800
1F81F800
1F81F800
FFFFFF80
FFFFFF80
FFFFFF80
FFFFFF80
FFFFFF80
FFFFFF80
1F81F800
1F81F800
1F81F800
1F81F800
1F81F800
1F81F800
1F81F800
FFFFFF80
FFFFFF80
FFFFFF80
FFFFFF80
FFFFFF80
FFFFFF80
1F81F800
1F81F800
1F81F800
ENDCHAR
STARTCHAR 0024
ENCODING 36
SWIDTH 285 0
DWIDTH 28 0
BBX 25 55 0 -6
BITMAP
007E0000
007E0000
007E0000
007E0000
007E0000
007E0000
03FFE000
07FFF000
0FFFF800
1FFFFC00
3FFFFE00
7FFFFF00
FFFEFF80
FF7E7F80
FE7E3F80
FC7E3F80
FC7E3F80
FC7E3F80
FC7E0000
FC7E0000
FC7E0000
FC7E0000
FE7E0000
FF7E0000
FFFFC000
7FFFE000
3FFFF000
1FFFF800
0FFFFC00
07FFFE00
03FFFF00
007EFF80
007E7F80
007E3F80
007E3F80
007E3F80
007E3F80
FC7E3F80
FC7E3F80
FC7E3F80
FE7E3F80
FF7E7F80
FFFEFF80
7FFFFF00
3FFFFE00
1FFFFC00
0FFFF800
07FFF000
03FFE000
007E0000
007E0000
007E0000
007E0000
007E0000
007E0000
ENDCHAR
STARTCHAR 0025
ENCODING 37
SWIDTH 285 0
DWIDTH 28 0
BBX 25 43 0 0
BITMAP
1FC03F80
3FE03F80
7FF03F80
FFF03F00
F9F03F00
F0F07E00
E0707E00
F0F0FC00
F9F0FC00
FFF1F800
3FE1F800
1FC3F000
0003F000
0007E000
0007E000
000FC000
000FC000
001F8000
001F8000
003F0000
003F0000
007E0000
007E0000
00FC0000
00FC0000
01F80000
01F80000
03F00000
03F00000
07E00000
07E00000
0FC1FC00
0FC3FE00
1F87FF00
1F8FDF80
3F0F8F80
3F0F0780
7E0F0780
7E0F8F80
FC0FDF80
FC07FF00
FC03FE00
FC01FC00
ENDCHAR
STARTCHAR 0026
ENCODING 38
SWIDTH 285 0
DWIDTH 28 0
BBX 25 43 0 0
BITMAP
0FFC0000
0FFE0000
1FFE0000
1FFF0000
3FFF0000
3FFF8000
3F1F8000
3F1F8000
3F1F8000
3F1F8000
3F3F0000
1FBF0000
1FFE0000
0FFE0000
0FFC0000
07FC0000
07F80000
03F80000
03F03F80
07F83F00
07F87E00
0FFC7E00
0FFCFC00
1FFEFC00
1FFFF800
3FBFF800
3F3FF000
7F1FF000
7E1FE000
FE0FE000
FC0FC000
FC0FE000
FC1FE000
FC1FF000
FE3FF000
7E3FF800
7FFFF800
3FFEFC00
3FFCFC00
1FFC7E00
1FF87E00
0FF83F00
0FF83F80
ENDCHAR
STARTCHAR 0027
ENCODING 39
SWIDTH 285 0
DWIDTH 28 0
BBX 6 15 9 28
BITMAP
FC
FC
FC
FC
FC
FC
1C
3C
38
78
70
F0
E0
E0
C0
ENDCHAR
STARTCHAR 0028
ENCODING 40
SWIDTH 285 0
DWIDTH 28 0
BBX 12 55 6 -6
BITMAP
03F0
07F0
0FF0
1FF0
3FF0
7FF0
FF80
FF00
FE00
FC00
FC00
FC00
FC00
FC00
FC00
FC00
FC00
FC00
FC00
FC00
FC00
FC00
FC00
FC00
FC00
FC00
FC00
FC00
FC00
FC00
FC00
FC00
FC00
FC00
FC00
FC00
FC00
FC00
FC00
FC00
FC00
FC00
FC00
FC00
FC00
FC00
FE00
FF00
FF80
7FF0
3FF0
1FF0
0FF0
07F0
03F0
ENDCHAR
STARTCHAR 0029
ENCODING 41
SWIDTH 285 0
DWIDTH 28 0
BBX 12 55 6 -6
BITMAP
FE00
FF00
FF80
FFC0
FFE0
FFF0
0FF0
07F0
03F0
03F0
03F0
03F0
03F0
03F0
03F0
03F0
03F0
03F0
03F0
03F0
03F0
03F0
03F0
03F0
03F0
03F0
03F0
03F0
03F0
03F0
03F0
03F0
03F0
03F0
03F0
03F0
03F0
03F0
03F0
03F0
03F0
03F0
03F0
03F0
03F0
03F0
03F0
07F0
0FF0
FFF0
FFE0
FFC0
FF80
FF00
FE00
ENDCHAR
STARTCHAR 002A
ENCODING 42
SWIDTH 285 0
DWIDTH 28 0
BBX 25 25 0 18
BITMAP
00080000
00080000
00180000
001C0000
003C0000
073E7000
07FFF000
07FFE000
03FFE000
03FFE000
0FFFF800
3FFFFE00
FFFFFF80
3FFFFE00
0FFFF800
03FFE000
03FFE000
07FFE000
07FFF000
073E7000
003C0000
001C0000
00180000
00080000
00080000
ENDCHAR
STARTCHAR 002B
ENCODING 43
SWIDTH 285 0
DWIDTH 28 0
BBX 25 25 0 9
BITMAP
007E0000
007E0000
007E0000
007E0000
007E0000
007E0000
007E0000
007E0000
007E0000
007E0000
FFFFFF80
FFFFFF80
FFFFFF80
FFFFFF80
FFFFFF80
FFFFFF80
007E0000
007E0000
007E0000
007E0000
007E0000
007E0000
007E0000
007E0000
007E0000
ENDCHAR
STARTCHAR 002C
ENCODING 44
SWIDTH 285 0
DWIDTH 28 0
BBX 6 15 9 -9
BITMAP
FC
FC
FC
FC
FC
FC
1C
3C
38
78
70
F0
E0
E0
C0
ENDCHAR
STARTCHAR 002D
ENCODING 45
SWIDTH 285 0
DWIDTH 28 0
BBX 25 6 0 18
BITMAP
FFFFFF80
FFFFFF80
FFFFFF80
FFFFFF80
FFFFFF80
FFFFFF80
ENDCHAR
STARTCHAR 002E
ENCODING 46
SWIDTH 285 0
DWIDTH 28 0
BBX 6 6 9 0
BITMAP
FC
FC
FC
FC
FC
FC
ENDCHAR
STARTCHAR 002F
ENCODING 47
SWIDTH 285 0
DWIDTH 28 0
BBX 25 43 0 0
BITMAP
00003F80
00003F80
00003F80
00003F00
00003F00
00007E00
00007E00
0000FC00
0000FC00
0001F800
0001F800
0003F000
0003F000
0007E000
0007E000
000FC000
000FC000
001F8000
001F8000
003F0000
003F0000
007E0000
007E0000
00FC0000
00FC0000
01F80000
01F80000
03F00000
03F00000
07E00000
07E00000
0FC00000
0FC00000
1F800000
1F800000
3F000000
3F000000
7E000000
7E000000
FC000000
FC000000
FC000000
FC000000
ENDCHAR
STARTCHAR 0030
ENCODING 48
SWIDTH 285 0
DWIDTH 28 0
BBX 25 43 0 0
BITMAP
03FFE000
07FFF000
0FFFF800
1FFFFC00
3FFFFE00
7FFFFF00
FF80FF80
FF007F80
FE003F80
FC003F80
FC003F80
FC003F80
FC003F80
FC003F80
FC003F80
FC003F80
FC003F80
FC003F80
FC003F80
FC7E3F80
FC7E3F80
FC7E3F80
FC7E3F80
FC7E3F80
FC7E3F80
FC003F80
FC003F80
FC003F80
FC003F80
FC003F80
FC003F80
FC003F80
FC003F80
FC003F80
FE003F80
FF007F80
FF80FF80
7FFFFF00
3FFFFE00
1FFFFC00
0FFFF800
07FFF000
03FFE000
ENDCHAR
STARTCHAR 0031
ENCODING 49
SWIDTH 285 0
DWIDTH 28 0
BBX 25 43 0 0
BITMAP
007E0000
00FE0000
01FE0000
03FE0000
07FE0000
0FFE0000
1FFE0000
1FFE0000
1FFE0000
1FFE0000
1F7E0000
1E7E0000
1C7E0000
187E0000
107E0000
007E0000
007E0000
007E0000
007E0000
007E0000
007E0000
007E0000
007E0000
007E0000
007E0000
007E0000
007E0000
007E0000
007E0000
007E0000
007E0000
007E0000
007E0000
007E0000
007E0000
007E0000
007E0000
FFFFFF80
FFFFFF80
FFFFFF80
FFFFFF80
FFFFFF80
FFFFFF80
ENDCHAR
STARTCHAR 0032
ENCODING 50
SWIDTH 285 0
DWIDTH 28 0
BBX 25 43 0 0
BITMAP
03FFE000
07FFF000
0FFFF800
1FFFFC00
3FFFFE00
7FFFFF00
FF80FF80
FF007F80
FE003F80
FC003F80
FC003F80
FC003F80
00003F80
00003F80
00003F80
00003F80
00007F80
0000FF80
0001FF80
0003FF00
0007FE00
000FFC00
001FF800
003FF000
007FE000
00FFC000
01FF8000
03FF0000
07FE0000
0FFC0000
1FF80000
3FF00000
7FE00000
FFC00000
FF800000
FF000000
FE000000
FFFFFF80
FFFFFF80
FFFFFF80
FFFFFF80
FFFFFF80
FFFFFF80
ENDCHAR
STARTCHAR 0033
ENCODING 51
SWIDTH 285 0
DWIDTH 28 0
BBX 25 43 0 0
BITMAP
03FFE000
07FFF000
0FFFF800
1FFFFC00
3FFFFE00
7FFFFF00
FF80FF80
FF007F80
FE003F80
FC003F80
FC003F80
FC003F80
00003F80
00003F80
00003F80
00003F80
00003F80
00007F80
0000FF00
007FFE00
007FFC00
007FF800
007FFC00
007FFE00
007FFF00
0000FF80
00007F80
00003F80
00003F80
00003F80
00003F80
FC003F80
FC003F80
FC003F80
FE003F80
FF007F80
FF80FF80
FFFFFF00
3FFFFE00
1FFFFC00
0FFFF800
07FFF000
03FFE000
ENDCHAR
STARTCHAR 0034
ENCODING 52
SWIDTH 285 0
DWIDTH 28 0
BBX 25 43 0 0
BITMAP
000FF000
001FF000
001FF000
003FF000
003FF000
003FF000
007FF000
007FF000
00FFF000
00FFF000
01FBF000
01FBF000
03F3F000
03F3F000
07E3F000
07E3F000
0FC3F000
0FC3F000
1F83F000
1F83F000
3F03F000
3F03F000
7E03F000
7E03F000
FC03F000
FFFFFF80
FFFFFF80
FFFFFF80
FFFFFF80
FFFFFF80
FFFFFF80
0003F000
0003F000
0003F000
0003F000
0003F000
0003F000
0003F000
0003F000
0003F000
0003F000
0003F000
0003F000
ENDCHAR
STARTCHAR 0035
ENCODING 53
SWIDTH 285 0
DWIDTH 28 0
BBX 25 43 0 0
BITMAP
FFFFFF80
FFFFFF80
FFFFFF80
FFFFFF80
FFFFFF80
FFFFFF80
FC000000
FC000000
FC000000
FC000000
FC000000
FC000000
FC000000
FC000000
FC000000
FC000000
FC7FE000
FCFFF000
FFFFF800
FFFFFC00
FFFFFE00
FFFFFF00
FF80FF80
FF007F80
FE003F80
00003F80
00003F80
00003F80
00003F80
00003F80
00003F80
FC003F80
FC003F80
FC003F80
FE003F80
FF007F80
FF80FF80
FFFFFF00
3FFFFE00
1FFFFC00
0FFFF800
07FFF000
03FFE000
ENDCHAR
STARTCHAR 0036
ENCODING 54
SWIDTH 285 0
DWIDTH 28 0
BBX 25 43 0 0
BITMAP
03FFE000
07FFF000
0FFFF800
1FFFFC00
3FFFFE00
7FFFFF00
FF80FF80
FF007F80
FE003F80
FC003F80
FC003F80
FC000000
FC000000
FC000000
FC000000
FC000000
FC7FE000
FCFFF000
FDFFF800
FFFFFC00
FFFFFE00
FFFFFF00
FF80FF80
FF007F80
FE003F80
FC003F80
FC003F80
FC003F80
FC003F80
FC003F80
FC003F80
FC003F80
FC003F80
FC003F80
FE003F80
FF007F80
FF80FF80
7FFFFF00
3FFFFE00
1FFFFC00
0FFFF800
07FFF000
03FFE000
ENDCHAR
STARTCHAR 0037
ENCODING 55
SWIDTH 285 0
DWIDTH 28 0
BBX 25 43 0 0
BITMAP
FFFFFF80
FFFFFF80
FFFFFF80
FFFFFF80
FFFFFF80
FFFFFF80
00003F00
00003F00
00007E00
00007E00
0000FC00
0000FC00
0001F800
0001F800
0003F000
0003F000
0007E000
0007E000
000FC000
000FC000
001F8000
001F8000
003F0000
003F0000
007E0000
007E0000
007E0000
007E0000
007E0000
007E0000
007E0000
007E0000
007E0000
007E0000
007E0000
007E0000
007E0000
007E0000
007E0000
007E0000
007E0000
007E0000
007E0000
ENDCHAR
STARTCHAR 0038
ENCODING 56
SWIDTH 285 0
DWIDTH 28 0
BBX 25 43 0 0
BITMAP
03FFE000
07FFF000
0FFFF800
1FFFFC00
3FFFFE00
7FFFFF00
FF80FF80
FF007F80
FE003F80
FE003F80
FF007F80
FF80FF80
FFC1FF00
7FE3FE00
3FF7FC00
1FFFF800
0FFFF000
07FFE000
03FFC000
01FF8000
01FF8000
03FFC000
07FFE000
0FFFF000
1FFFF800
3FF7FC00
7FE3FE00
FFC1FF00
FF80FF80
FF007F80
FE003F80
FC003F80
FC003F80
FC003F80
FE003F80
FF007F80
FF80FF80
7FFFFF00
3FFFFE00
1FFFFC00
0FFFF800
07FFF000
03FFE000
ENDCHAR
STARTCHAR 0039
ENCODING 57
SWIDTH 285 0
DWIDTH 28 0
BBX 25 43 0 0
BITMAP
03FFE000
07FFF000
0FFFF800
1FFFFC00
3FFFFE00
7FFFFF00
FF80FF80
FF007F80
FE003F80
FC003F80
FC003F80
FC003F80
FC003F80
FC003F80
FC003F80
FC003F80
FC003F80
FC003F80
FC003F80
FE003F80
FF007F80
FF80FF80
7FFFFF80
3FFFFF80
1FFFFF80
0FFFFF80
07FFBF80
03FF3F80
00003F80
00003F80
00003F80
00003F80
FC003F80
FC003F80
FE003F80
FF007F80
FF80FF80
FFFFFF00
3FFFFE00
1FFFFC00
0FFFF800
07FFF000
03FFE000
ENDCHAR
STARTCHAR 003A
ENCODING 58
SWIDTH 285 0
DWIDTH 28 0
BBX 6 24 9 0
BITMAP
FC
FC
FC
FC
FC
FC
00
00
00
00
00
00
00
00
00
00
00
00
FC
FC
FC
FC
FC
FC
ENDCHAR
STARTCHAR 003B
ENCODING 59
SWIDTH 285 0
DWIDTH 28 0
BBX 6 33 9 -9
BITMAP
FC
FC
FC
FC
FC
FC
00
00
00
00
00
00
00
00
00
00
00
00
FC
FC
FC
FC
FC
FC
1C
3C
38
78
70
F0
E0
E0
C0
ENDCHAR
STARTCHAR 003C
ENCODING 60
SWIDTH 285 0
DWIDTH 28 0
BBX 25 25 0 9
BITMAP
00000080
00000380
00000F80
00003F80
0000FF80
0003FF80
000FFF00
003FFC00
00FFF000
03FFC000
0FFF0000
3FFC0000
FFF00000
3FFC0000
0FFF0000
03FFC000
00FFF000
003FFC00
000FFF00
0003FF80
0000FF80
00003F80
00000F80
00000380
00000180
ENDCHAR
STARTCHAR 003D
ENCODING 61
SWIDTH 285 0
DWIDTH 28 0
BBX 25 19 0 12
BITMAP
FFFFFF80
FFFFFF80
FFFFFF80
FFFFFF80
FFFFFF80
FFFFFF80
00000000
00000000
00000000
00000000
00000000
00000000
00000000
FFFFFF80
FFFFFF80
FFFFFF80
FFFFFF80
FFFFFF80
FFFFFF80
ENDCHAR
STARTCHAR 003E
ENCODING 62
SWIDTH 285 0
DWIDTH 28 0
BBX 25 25 0 9
BITMAP
80000000
E0000000
F8000000
FE000000
FF800000
FFE00000
FFF80000
3FFE0000
0FFF8000
03FFE000
00FFF800
003FFE00
000FFF80
003FFE00
00FFF800
03FFE000
0FFF8000
3FFE0000
FFF80000
FFE00000
FF800000
FE000000
F8000000
E0000000
80000000
ENDCHAR
STARTCHAR 003F
ENCODING 63
SWIDTH 285 0
DWIDTH 28 0
BBX 25 43 0 0
BITMAP
03FFE000
07FFF000
0FFFF800
1FFFFC00
3FFFFE00
7FFFFF00
FF80FF80
FF007F80
FE003F80
FC003F80
FC003F80
FC003F80
00003F80
00007F80
0000FF80
0001FF00
0003FE00
0007FC00
000FF800
001FF000
003FE000
007FC000
007F8000
007F0000
007E0000
007E0000
007E0000
007E0000
007E0000
007E0000
007E0000
00000000
00000000
00000000
00000000
00000000
00000000
007E0000
007E0000
007E0000
007E0000
007E0000
007E0000
ENDCHAR
STARTCHAR 0040
ENCODING 64
SWIDTH 285 0
DWIDTH 28 0
BBX 25 40 0 -3
BITMAP
1FFFFC00
3FFFFC00
3FFFFE00
70000E00
70000700
E0000700
E071F780
E0F9F780
E0F9F780
E1FDF780
E1FDF780
E3FFF780
E3FFF780
E7DFF780
E7CFF780
E78FF780
E787F780
E787F780
E783F780
E783F780
E783F780
E783F780
E787F780
E787F780
E78FF700
E7CFF700
E3DFFE00
E3FFFE00
E1FFFC00
E1FDFC00
E0FDF800
E0F9F800
E079F000
E071F000
E0000000
70000000
70000000
3FFFF800
3FFFF800
1FFFF800
ENDCHAR
STARTCHAR 0041
ENCODING 65
SWIDTH 285 0
DWIDTH 28 0
BBX 25 43 0 0
BITMAP
03FFE000
07FFF000
0FFFF800
1FFFFC00
3FFFFE00
7FFFFF00
FF80FF80
FF007F80
FE003F80
FC003F80
FC003F80
FC003F80
FC003F80
FC003F80
FC003F80
FC003F80
FC003F80
FC003F80
FC003F80
FFFFFF80
FFFFFF80
FFFFFF80
FFFFFF80
FFFFFF80
FFFFFF80
FC003F80
FC003F80
FC003F80
FC003F80
FC003F80
FC003F80
FC003F80
FC003F80
FC003F80
FC003F80
FC003F80
FC003F80
FC003F80
FC003F80
FC003F80
FC003F80
FC003F80
FC003F80
ENDCHAR
STARTCHAR 0042
ENCODING 66
SWIDTH 285 0
DWIDTH 28 0
BBX 25 43 0 0
BITMAP
FFFFE000
FFFFF000
FFFFF800
FFFFFC00
FFFFFE00
FFFFFF00
FC00FF80
FC007F80
FC003F80
FC003F80
FC003F80
FC003F80
FC003F80
FC003F80
FC003F80
FC003F80
FC003F80
FC007F80
FC00FF00
FFFFFE00
FFFFFC00
FFFFF800
FFFFFC00
FFFFFE00
FFFFFF00
FC00FF80
FC007F80
FC003F80
FC003F80
FC003F80
FC003F80
FC003F80
FC003F80
FC003F80
FC003F80
FC007F80
FC00FF80
FFFFFF00
FFFFFE00
FFFFFC00
FFFFF800
FFFFF000
FFFFE000
ENDCHAR
STARTCHAR 0043
ENCODING 67
SWIDTH 285 0
DWIDTH 28 0
BBX 25 43 0 0
BITMAP
03FFE000
07FFF000
0FFFF800
1FFFFC00
3FFFFE00
7FFFFF00
FF80FF80
FF007F80
FE003F80
FC003F80
FC003F80
FC003F80
FC000000
FC000000
FC000000
FC000000
FC000000
FC000000
FC000000
FC000000
FC000000
FC000000
FC000000
FC000000
FC000000
FC000000
FC000000
FC000000
FC000000
FC000000
FC000000
FC003F80
FC003F80
FC003F80
FE003F80
FF007F80
FF80FF80
7FFFFF00
3FFFFE00
1FFFFC00
0FFFF800
07FFF000
03FFE000
ENDCHAR
STARTCHAR 0044
ENCODING 68
SWIDTH 285 0
DWIDTH 28 0
BBX 25 43 0 0
BITMAP
FFFF0000
FFFF8000
FFFFC000
FFFFE000
FFFFF000
FFFFF800
FC07FC00
FC03FE00
FC01FF00
FC00FF80
FC007F80
FC003F80
FC003F80
FC003F80
FC003F80
FC003F80
FC003F80
FC003F80
FC003F80
FC003F80
FC003F80
FC003F80
FC003F80
FC003F80
FC003F80
FC003F80
FC003F80
FC003F80
FC003F80
FC003F80
FC003F80
FC003F80
FC007F80
FC00FF80
FC01FF00
FC03FE00
FC07FC00
FFFFF800
FFFFF000
FFFFE000
FFFFC000
FFFF8000
FFFF0000
ENDCHAR
STARTCHAR 0045
ENCODING 69
SWIDTH 285 0
DWIDTH 28 0
BBX 25 43 0 0
BITMAP
FFFFFF80
FFFFFF80
FFFFFF80
FFFFFF80
FFFFFF80
FFFFFF80
FC000000
FC000000
FC000000
FC000000
FC000000
FC000000
FC000000
FC000000
FC000000
FC000000
FC000000
FC000000
FC000000
FFFFC000
FFFFC000
FFFFC000
FFFFC000
FFFFC000
FFFFC000
FC000000
FC000000
FC000000
FC000000
FC000000
FC000000
FC000000
FC000000
FC000000
FC000000
FC000000
FC000000
FFFFFF80
FFFFFF80
FFFFFF80
FFFFFF80
FFFFFF80
FFFFFF80
ENDCHAR
STARTCHAR 0046
ENCODING 70
SWIDTH 285 0
DWIDTH 28 0
BBX 25 43 0 0
BITMAP
FFFFFF80
FFFFFF80
FFFFFF80
FFFFFF80
FFFFFF80
FFFFFF80
FC000000
FC000000
FC000000
FC000000
FC000000
FC000000
FC000000
FC000000
FC000000
FC000000
FC000000
FC000000
FC000000
FFFFC000
FFFFC000
FFFFC000
FFFFC000
FFFFC000
FFFFC000
FC000000
FC000000
FC000000
FC000000
FC000000
FC000000
FC000000
FC000000
FC000000
FC000000
FC000000
FC000000
FC000000
FC000000
FC000000
FC000000
FC000000
FC000000
ENDCHAR
STARTCHAR 0047
ENCODING 71
SWIDTH 285 0
DWIDTH 28 0
BBX 25 43 0 0
BITMAP
03FFE000
07FFF000
0FFFF800
1FFFFC00
3FFFFE00
7FFFFF00
FF80FF80
FF007F80
FE003F80
FC003F80
FC003F80
FC003F80
FC000000
FC000000
FC000000
FC000000
FC000000
FC000000
FC000000
FC0FFF80
FC0FFF80
FC0FFF80
FC0FFF80
FC0FFF80
FC0FFF80
FC003F80
FC003F80
FC003F80
FC003F80
FC003F80
FC003F80
FC003F80
FC003F80
FC003F80
FE003F80
FF007F80
FF80FF80
7FFFFF00
3FFFFE00
1FFFFC00
0FFFF800
07FFF000
03FFE000
ENDCHAR
STARTCHAR 0048
ENCODING 72
SWIDTH 285 0
DWIDTH 28 0
BBX 25 43 0 0
BITMAP
FC003F80
FC003F80
FC003F80
FC003F80
FC003F80
FC003F80
FC003F80
FC003F80
FC003F80
FC003F80
FC003F80
FC003F80
FC003F80
FC003F80
FC003F80
FC003F80
FC003F80
FC003F80
FC003F80
FFFFFF80
FFFFFF80
FFFFFF80
FFFFFF80
FFFFFF80
FFFFFF80
FC003F80
FC003F80
FC003F80
FC003F80
FC003F80
FC003F80
FC003F80
FC003F80
FC003F80
FC003F80
FC003F80
FC003F80
FC003F80
FC003F80
FC003F80
FC003F80
FC003F80
FC003F80
ENDCHAR
STARTCHAR 0049
ENCODING 73
SWIDTH 285 0
DWIDTH 28 0
BBX 25 43 0 0
BITMAP
FFFFFF80
FFFFFF80
FFFFFF80
FFFFFF80
FFFFFF80
FFFFFF80
007E0000
007E0000
007E0000
007E0000
007E0000
007E0000
007E0000
007E0000
007E0000
007E0000
007E0000
007E0000
007E0000
007E0000
007E0000
007E0000
007E0000
007E0000
007E0000
007E0000
007E0000
007E0000
007E0000
007E0000
007E0000
007E0000
007E0000
007E0000
007E0000
007E0000
007E0000
FFFFFF80
FFFFFF80
FFFFFF80
FFFFFF80
FFFFFF80
FFFFFF80
ENDCHAR
STARTCHAR 004A
ENCODING 74
SWIDTH 285 0
DWIDTH 28 0
BBX 25 43 0 0
BITMAP
000FFF80
000FFF80
000FFF80
000FFF80
000FFF80
000FFF80
00003F80
00003F80
00003F80
00003F80
00003F80
00003F80
00003F80
00003F80
00003F80
00003F80
00003F80
00003F80
00003F80
00003F80
00003F80
00003F80
00003F80
00003F80
00003F80
00003F80
00003F80
00003F80
00003F80
00003F80
00003F80
FC003F80
FC003F80
FC003F80
FE003F80
FF007F80
FF80FF80
FFFFFF00
3FFFFE00
1FFFFC00
0FFFF800
07FFF000
03FFE000
ENDCHAR
STARTCHAR 004B
ENCODING 75
SWIDTH 285 0
DWIDTH 28 0
BBX 25 43 0 0
BITMAP
FC003F80
FC003F80
FC003F80
FC003F80
FC003F80
FC003F80
FC003F80
FC003F80
FC003F80
FC003F80
FC003F80
FC003F80
FC003F80
FC003F80
FC007F80
FC01FF80
FC07FF80
FC1FFE00
FC7FF800
FDFFE000
FFFF8000
FFFE0000
FFFF8000
FFFFE000
FFFFF800
FE1FFE00
FC07FF80
FC01FF80
FC007F80
FC003F80
FC003F80
FC003F80
FC003F80
FC003F80
FC003F80
FC003F80
FC003F80
FC003F80
FC003F80
FC003F80
FC003F80
FC003F80
FC003F80
ENDCHAR
STARTCHAR 004C
ENCODING 76
SWIDTH 285 0
DWIDTH 28 0
BBX 25 43 0 0
BITMAP
FC000000
FC000000
FC000000
FC000000
FC000000
FC000000
FC000000
FC000000
FC000000
FC000000
FC000000
FC000000
FC000000
FC000000
FC000000
FC000000
FC000000
FC000000
FC000000
FC000000
FC000000
FC000000
FC000000
FC000000
FC000000
FC000000
FC000000
FC000000
FC000000
FC000000
FC000000
FC000000
FC000000
FC000000
FC000000
FC000000
FC000000
FFFFFF80
FFFFFF80
FFFFFF80
FFFFFF80
FFFFFF80
FFFFFF80
ENDCHAR
STARTCHAR 004D
ENCODING 77
SWIDTH 285 0
DWIDTH 28 0
BBX 25 43 0 0
BITMAP
FC003F80
FE003F80
FE007F80
FF007F80
FF00FF80
FF80FF80
FF81FF80
FFC1FF80
FFC3FF80
FFE3FF80
FFE7FF80
FFF7FF80
FFFFFF80
FDFFFF80
FDFFBF80
FCFFBF80
FCFF3F80
FC7F3F80
FC7E3F80
FC3E3F80
FC3C3F80
FC1C3F80
FC183F80
FC083F80
FC103F80
FC003F80
FC003F80
FC003F80
FC003F80
FC003F80
FC003F80
FC003F80
FC003F80
FC003F80
FC003F80
FC003F80
FC003F80
FC003F80
FC003F80
FC003F80
FC003F80
FC003F80
FC003F80
ENDCHAR
STARTCHAR 004E
ENCODING 78
SWIDTH 285 0
DWIDTH 28 0
BBX 25 43 0 0
BITMAP
F8003F80
F8003F80
FC003F80
FC003F80
FE003F80
FE003F80
FF003F80
FF003F80
FF803F80
FF803F80
FFC03F80
FFC03F80
FFE03F80
FFE03F80
FFF03F80
FFF03F80
FDF83F80
FDF83F80
FCFC3F80
FCFC3F80
FC7E3F80
FC7E3F80
FC3F3F80
FC3F3F80
FC1FBF80
FC1FBF80
FC0FFF80
FC0FFF80
FC07FF80
FC07FF80
FC03FF80
FC03FF80
FC01FF80
FC01FF80
FC00FF80
FC00FF80
FC007F80
FC007F80
FC003F80
FC003F80
FC001F80
FC001F80
FC000F80
ENDCHAR
STARTCHAR 004F
ENCODING 79
SWIDTH 285 0
DWIDTH 28 0
BBX 25 43 0 0
BITMAP
03FFE000
07FFF000
0FFFF800
1FFFFC00
3FFFFE00
7FFFFF00
FF80FF80
FF007F80
FE003F80
FC003F80
FC003F80
FC003F80
FC003F80
FC003F80
FC003F80
FC003F80
FC003F80
FC003F80
FC003F80
FC003F80
FC003F80
FC003F80
FC003F80
FC003F80
FC003F80
FC003F80
FC003F80
FC003F80
FC003F80
FC003F80
FC003F80
FC003F80
FC003F80
FC003F80
FE003F80
FF007F80
FF80FF80
7FFFFF00
3FFFFE00
1FFFFC00
0FFFF800
07FFF000
03FFE000
ENDCHAR
STARTCHAR 0050
ENCODING 80
SWIDTH 285 0
DWIDTH 28 0
BBX 25 43 0 0
BITMAP
FFFFE000
FFFFF000
FFFFF800
FFFFFC00
FFFFFE00
FFFFFF00
FC00FF80
FC007F80
FC003F80
FC003F80
FC003F80
FC003F80
FC003F80
FC003F80
FC003F80
FC003F80
FC003F80
FC007F80
FC00FF80
FFFFFF00
FFFFFE00
FFFFFC00
FFFFF800
FFFFF000
FFFFE000
FC000000
FC000000
FC000000
FC000000
FC000000
FC000000
FC000000
FC000000
FC000000
FC000000
FC000000
FC000000
FC000000
FC000000
FC000000
FC000000
FC000000
FC000000
ENDCHAR
STARTCHAR 0051
ENCODING 81
SWIDTH 285 0
DWIDTH 28 0
BBX 25 52 0 -9
BITMAP
03FFE000
07FFF000
0FFFF800
1FFFFC00
3FFFFE00
7FFFFF00
FF80FF80
FF007F80
FE003F80
FC003F80
FC003F80
FC003F80
FC003F80
FC003F80
FC003F80
FC003F80
FC003F80
FC003F80
FC003F80
FC003F80
FC003F80
FC003F80
FC003F80
FC003F80
FC003F80
FC003F80
FC003F80
FC003F80
FC003F80
FC003F80
FC003F80
FC003F80
FC003F80
FC003F80
FE003F80
FF007F80
FF80FF80
7FFFFF00
3FFFFE00
1FFFFC00
0FFFF800
07FFF000
03FFE000
007E0000
007E0000
007F0000
007FF800
007FF800
007FF800
003FF800
001FF800
000FF800
ENDCHAR
STARTCHAR 0052
ENCODING 82
SWIDTH 285 0
DWIDTH 28 0
BBX 25 43 0 0
BITMAP
FFFFE000
FFFFF000
FFFFF800
FFFFFC00
FFFFFE00
FFFFFF00
FC00FF80
FC007F80
FC003F80
FC003F80
FC003F80
FC003F80
FC003F80
FC003F80
FC003F80
FC003F80
FC003F80
FC007F80
FC00FF80
FFFFFF00
FFFFFE00
FFFFFC00
FFFFF800
FFFFF000
FFFFE000
FC0FE000
FC07E000
FC03F000
FC03F000
FC01F800
FC01F800
FC00FC00
FC00FC00
FC007E00
FC007E00
FC003F00
FC003F00
FC003F80
FC003F80
FC003F80
FC003F80
FC003F80
FC003F80
ENDCHAR
STARTCHAR 0053
ENCODING 83
SWIDTH 285 0
DWIDTH 28 0
BBX 25 43 0 0
BITMAP
03FFE000
07FFF000
0FFFF800
1FFFFC00
3FFFFE00
7FFFFF00
FF80FF80
FF007F80
FE003F80
FC003F80
FC003F80
FC003F80
FC000000
FC000000
FC000000
FC000000
FE000000
FF000000
FF800000
7FFFE000
3FFFF000
1FFFF800
0FFFFC00
07FFFE00
03FFFF00
0000FF80
00007F80
00003F80
00003F80
00003F80
00003F80
FC003F80
FC003F80
FC003F80
FE003F80
FF007F80
FF80FF80
FFFFFF00
3FFFFE00
1FFFFC00
0FFFF800
07FFF000
03FFE000
ENDCHAR
STARTCHAR 0054
ENCODING 84
SWIDTH 285 0
DWIDTH 28 0
BBX 25 43 0 0
BITMAP
FFFFFF80
FFFFFF80
FFFFFF80
FFFFFF80
FFFFFF80
FFFFFF80
007E0000
007E0000
007E0000
007E0000
007E0000
007E0000
007E0000
007E0000
007E0000
007E0000
007E0000
007E0000
007E0000
007E0000
007E0000
007E0000
007E0000
007E0000
007E0000
007E0000
007E0000
007E0000
007E0000
007E0000
007E0000
007E0000
007E0000
007E0000
007E0000
007E0000
007E0000
007E0000
007E0000
007E0000
007E0000
007E0000
007E0000
ENDCHAR
STARTCHAR 0055
ENCODING 85
SWIDTH 285 0
DWIDTH 28 0
BBX 25 43 0 0
BITMAP
FC003F80
FC003F80
FC003F80
FC003F80
FC003F80
FC003F80
FC003F80
FC003F80
FC003F80
FC003F80
FC003F80
FC003F80
FC003F80
FC003F80
FC003F80
FC003F80
FC003F80
FC003F80
FC003F80
FC003F80
FC003F80
FC003F80
FC003F80
FC003F80
FC003F80
FC003F80
FC003F80
FC003F80
FC003F80
FC003F80
FC003F80
FC003F80
FC003F80
FC003F80
FE003F80
FF007F80
FF80FF80
7FFFFF00
3FFFFE00
1FFFFC00
0FFFF800
07FFF000
03FFE000
ENDCHAR
STARTCHAR 0056
ENCODING 86
SWIDTH 285 0
DWIDTH 28 0
BBX 25 43 0 0
BITMAP
FC003F80
FC003F80
FC003F80
FC003F80
FC003F80
FC003F80
FC003F80
FC003F80
FC003F80
FC003F80
FC003F80
FC003F80
FC003F80
FC003F80
FC003F80
FC003F80
FC003F80
FC003F80
FC003F80
FC003F80
FC003F80
FC003F80
FC003F80
FC003F80
FC003F80
FE003F00
7E007F00
7F007E00
3F00FE00
3F80FC00
1F81FC00
1FC1F800
0FC3F800
0FE3F000
07E7F000
07F7E000
03FFE000
03FFC000
01FFC000
01FF8000
00FF8000
00FF0000
007F0000
ENDCHAR
STARTCHAR 0057
ENCODING 87
SWIDTH 285 0
DWIDTH 28 0
BBX 25 43 0 0
BITMAP
FC003F80
FC003F80
FC003F80
FC003F80
FC003F80
FC003F80
FC003F80
FC003F80
FC003F80
FC003F80
FC003F80
FC003F80
FC003F80
FC003F80
FC003F80
FC003F80
FC003F80
FC003F80
FC103F80
FC083F80
FC183F80
FC1C3F80
FC3C3F80
FC3E3F80
FC7E3F80
FC7F3F80
FCFF3F80
FCFFBF80
FDFFBF80
FDFFFF80
FFFFFF80
FFF7FF80
FFE7FF80
FFE3FF80
FFC3FF80
FFC1FF80
FF81FF80
FF80FF80
FF00FF80
FF007F80
FE007F80
FE003F80
FC003F80
ENDCHAR
STARTCHAR 0058
ENCODING 88
SWIDTH 285 0
DWIDTH 28 0
BBX 25 43 0 0
BITMAP
FC003F80
FC003F80
FC003F80
FC003F00
7E003F00
7E007E00
3F007E00
3F00FC00
1F80FC00
1F81F800
0FC1F800
0FC3F000
07E3F000
07E7E000
03F7E000
03FFC000
01FFC000
01FF8000
00FF8000
00FF0000
007F0000
007E0000
007F0000
00FF0000
00FF8000
01FF8000
01FFC000
03FFC000
03F7E000
07E7E000
07E3F000
0FC3F000
0FC1F800
1F81F800
1F80FC00
3F00FC00
3F007E00
7E007E00
7E003F00
FC003F00
FC003F80
FC003F80
FC003F80
ENDCHAR
STARTCHAR 0059
ENCODING 89
SWIDTH 285 0
DWIDTH 28 0
BBX 25 43 0 0
BITMAP
FC003F80
FC003F80
FC003F80
FC003F00
7E003F00
7E007E00
3F007E00
3F00FC00
1F80FC00
1F81F800
0FC1F800
0FC3F000
07E3F000
07E7E000
03F7E000
03FFC000
01FFC000
01FF8000
00FF8000
00FF0000
007F0000
007E0000
007E0000
007E0000
007E0000
007E0000
007E0000
007E0000
007E0000
007E0000
007E0000
007E0000
007E0000
007E0000
007E0000
007E0000
007E0000
007E0000
007E0000
007E0000
007E0000
007E0000
007E0000
ENDCHAR
STARTCHAR 005A
ENCODING 90
SWIDTH 285 0
DWIDTH 28 0
BBX 25 43 0 0
BITMAP
FFFFFF80
FFFFFF80
FFFFFF80
FFFFFF00
FFFFFF00
FFFFFE00
00007E00
0000FC00
0000FC00
0001F800
0001F800
0003F000
0003F000
0007E000
0007E000
000FC000
000FC000
001F8000
001F8000
003F0000
003F0000
007E0000
007E0000
00FC0000
00FC0000
01F80000
01F80000
03F00000
03F00000
07E00000
07E00000
0FC00000
0FC00000
1F800000
1F800000
3F000000
3F000000
7FFFFF80
7FFFFF80
FFFFFF80
FFFFFF80
FFFFFF80
FFFFFF80
ENDCHAR
STARTCHAR 005B
ENCODING 91
SWIDTH 285 0
DWIDTH 28 0
BBX 12 55 6 -6
BITMAP
FFF0
FFF0
FFF0
FFF0
FFF0
FFF0
FC00
FC00
FC00
FC00
FC00
FC00
FC00
FC00
FC00
FC00
FC00
FC00
FC00
FC00
FC00
FC00
FC00
FC00
FC00
FC00
FC00
FC00
FC00
FC00
FC00
FC00
FC00
FC00
FC00
FC00
FC00
FC00
FC00
FC00
FC00
FC00
FC00
FC00
FC00
FC00
FC00
FC00
FC00
FFF0
FFF0
FFF0
FFF0
FFF0
FFF0
ENDCHAR
STARTCHAR 005C
ENCODING 92
SWIDTH 285 0
DWIDTH 28 0
BBX 25 43 0 0
BITMAP
FC000000
FC000000
FC000000
FC000000
7E000000
7E000000
3F000000
3F000000
1F800000
1F800000
0FC00000
0FC00000
07E00000
07E00000
03F00000
03F00000
01F80000
01F80000
00FC0000
00FC0000
007E0000
007E0000
003F0000
003F0000
001F8000
001F8000
000FC000
000FC000
0007E000
0007E000
0003F000
0003F000
0001F800
0001F800
0000FC00
0000FC00
00007E00
00007E00
00003F00
00003F00
00003F80
00003F80
00003F80
ENDCHAR
STARTCHAR 005D
ENCODING 93
SWIDTH 285 0
DWIDTH 28 0
BBX 12 55 6 -6
BITMAP
FFF0
FFF0
FFF0
FFF0
FFF0
FFF0
03F0
03F0
03F0
03F0
03F0
03F0
03F0
03F0
03F0
03F0
03F0
03F0
03F0
03F0
03F0
03F0
03F0
03F0
03F0
03F0
03F0
03F0
03F0
03F0
03F0
03F0
03F0
03F0
03F0
03F0
03F0
03F0
03F0
03F0
03F0
03F0
03F0
03F0
03F0
03F0
03F0
03F0
03F0
FFF0
FFF0
FFF0
FFF0
FFF0
FFF0
ENDCHAR
STARTCHAR 005E
ENCODING 94
SWIDTH 285 0
DWIDTH 28 0
BBX 18 18 3 25
BITMAP
004000
00C000
00E000
01E000
01F000
03F000
03F800
07F800
07FC00
0FFC00
0FBE00
1F1E00
1E1F00
3E0F00
3C0F80
7C0780
7807C0
F803C0
ENDCHAR
STARTCHAR 005F
ENCODING 95
SWIDTH 285 0
DWIDTH 28 0
BBX 25 6 0 -6
BITMAP
FFFFFF80
FFFFFF80
FFFFFF80
FFFFFF80
FFFFFF80
FFFFFF80
ENDCHAR
STARTCHAR 0060
ENCODING 96
SWIDTH 285 0
DWIDTH 28 0
BBX 12 15 6 28
BITMAP
F800
7800
7C00
3E00
3E00
1F00
1F00
0F80
0F80
07C0
07C0
03E0
03E0
01F0
00F0
ENDCHAR
STARTCHAR 0061
ENCODING 97
SWIDTH 285 0
DWIDTH 28 0
BBX 25 31 0 0
BITMAP
03FF3F80
07FFBF80
0FFFFF80
1FFFFF80
3FFFFF80
7FFFFF80
FF80FF80
FF007F80
FE003F80
FC003F80
FC003F80
FC003F80
FC003F80
FC003F80
FC003F80
FC003F80
FC003F80
FC003F80
FC003F80
FC003F80
FC003F80
FC003F80
FE003F80
FF007F80
FF80FF80
7FFFFF80
3FFFFF80
1FFFFF80
0FFFFF80
07FFBF80
03FF3F80
ENDCHAR
STARTCHAR 0062
ENCODING 98
SWIDTH 285 0
DWIDTH 28 0
BBX 25 43 0 0
BITMAP
FC000000
FC000000
FC000000
FC000000
FC000000
FC000000
FC000000
FC000000
FC000000
FC000000
FC000000
FC000000
FC7FE000
FCFFF000
FDFFF800
FFFFFC00
FFFFFE00
FFFFFF00
FF80FF80
FF007F80
FE003F80
FC003F80
FC003F80
FC003F80
FC003F80
FC003F80
FC003F80
FC003F80
FC003F80
FC003F80
FC003F80
FC003F80
FC003F80
FC003F80
FE003F80
FF007F80
FF80FF80
FFFFFF00
FFFFFE00
FFFFFC00
FDFFF800
FCFFF000
FC7FE000
ENDCHAR
STARTCHAR 0063
ENCODING 99
SWIDTH 285 0
DWIDTH 28 0
BBX 25 31 0 0
BITMAP
03FFE000
07FFF000
0FFFF800
1FFFFC00
3FFFFE00
7FFFFF00
FF80FF80
FF007F80
FE003F80
FC003F80
FC003F80
FC000000
FC000000
FC000000
FC000000
FC000000
FC000000
FC000000
FC000000
FC000000
FC003F80
FC003F80
FE003F80
FF007F80
FF80FF80
7FFFFF00
3FFFFE00
1FFFFC00
0FFFF800
07FFF000
03FFE000
ENDCHAR
STARTCHAR 0064
ENCODING 100
SWIDTH 285 0
DWIDTH 28 0
BBX 25 43 0 0
BITMAP
00003F80
00003F80
00003F80
00003F80
00003F80
00003F80
00003F80
00003F80
00003F80
00003F80
00003F80
00003F80
03FF3F80
07FFBF80
0FFFFF80
1FFFFF80
3FFFFF80
7FFFFF80
FF80FF80
FF007F80
FE003F80
FC003F80
FC003F80
FC003F80
FC003F80
FC003F80
FC003F80
FC003F80
FC003F80
FC003F80
FC003F80
FC003F80
FC003F80
FC003F80
FE003F80
FF007F80
FF80FF80
7FFFFF80
3FFFFF80
1FFFFF80
0FFFFF80
07FFBF80
03FF3F80
ENDCHAR
STARTCHAR 0065
ENCODING 101
SWIDTH 285 0
DWIDTH 28 0
BBX 25 31 0 0
BITMAP
03FFE000
07FFF000
0FFFF800
1FFFFC00
3FFFFE00
7FFFFF00
FF80FF80
FF007F80
FE007F80
FC003F80
FC003F80
FC003F80
FC003F80
FFFFFF80
FFFFFF80
FFFFFF80
FFFFFF80
FFFFFF80
FFFFFF80
FC000000
FC000000
FC000000
FE003F80
FF007F80
FF80FF80
7FFFFF00
3FFFFE00
1FFFFC00
0FFFF800
07FFF000
03FFE000
ENDCHAR
STARTCHAR 0066
ENCODING 102
SWIDTH 285 0
DWIDTH 28 0
BBX 25 43 0 0
BITMAP
007FE000
00FFF000
01FFF800
03FFFC00
07FFFE00
0FFFFF00
1FF0FF80
1FE07F80
1FC03F80
1F800000
1F800000
1F800000
FFFFF800
FFFFF800
FFFFF800
FFFFF800
FFFFF800
FFFFF800
1F800000
1F800000
1F800000
1F800000
1F800000
1F800000
1F800000
1F800000
1F800000
1F800000
1F800000
1F800000
1F800000
1F800000
1F800000
1F800000
1F800000
1F800000
1F800000
1F800000
1F800000
1F800000
1F800000
1F800000
1F800000
ENDCHAR
STARTCHAR 0067
ENCODING 103
SWIDTH 285 0
DWIDTH 28 0
BBX 25 46 0 -15
BITMAP
03FF3F80
07FFBF80
0FFFFF80
1FFFFF80
3FFFFF80
7FFFFF80
FF80FF80
FF007F80
FE003F80
FC003F80
FC003F80
FC003F80
FC003F80
FC003F80
FC003F80
FC003F80
FC003F80
FC003F80
FC003F80
FC003F80
FC003F80
FC003F80
FE003F80
FF007F80
FF80FF80
7FFFFF80
3FFFFF80
1FFFFF80
0FFFFF80
07FFBF80
03FF3F80
00003F80
00003F80
00003F80
FC003F80
FC003F80
FC003F80
FE003F80
FF007F80
FF80FF80
FFFFFF00
3FFFFE00
1FFFFC00
0FFFF800
07FFF000
03FFE000
ENDCHAR
STARTCHAR 0068
ENCODING 104
SWIDTH 285 0
DWIDTH 28 0
BBX 25 43 0 0
BITMAP
FC000000
FC000000
FC000000
FC000000
FC000000
FC000000
FC000000
FC000000
FC000000
FC000000
FC000000
FC000000
FC7FE000
FCFFF000
FDFFF800
FFFFFC00
FFFFFE00
FFFFFF00
FF80FF80
FF007F80
FE003F80
FC003F80
FC003F80
FC003F80
FC003F80
FC003F80
FC003F80
FC003F80
FC003F80
FC003F80
FC003F80
FC003F80
FC003F80
FC003F80
FC003F80
FC003F80
FC003F80
FC003F80
FC003F80
FC003F80
FC003F80
FC003F80
FC003F80
ENDCHAR
STARTCHAR 0069
ENCODING 105
SWIDTH 285 0
DWIDTH 28 0
BBX 25 43 0 0
BITMAP
007E0000
007E0000
007E0000
007E0000
007E0000
007E0000
00000000
00000000
00000000
00000000
00000000
00000000
03FE0000
03FE0000
03FE0000
03FE0000
03FE0000
03FE0000
03FE0000
007E0000
007E0000
007E0000
007E0000
007E0000
007E0000
007E0000
007E0000
007E0000
007E0000
007E0000
007E0000
007E0000
007E0000
007E0000
007E0000
007E0000
007E0000
FFFFFF80
FFFFFF80
FFFFFF80
FFFFFF80
FFFFFF80
FFFFFF80
ENDCHAR
STARTCHAR 006A
ENCODING 106
SWIDTH 285 0
DWIDTH 28 0
BBX 25 58 0 -15
BITMAP
00003F80
00003F80
00003F80
00003F80
00003F80
00003F80
00000000
00000000
00000000
00000000
00000000
00000000
0001FF80
0001FF80
0001FF80
0001FF80
0001FF80
0001FF80
00003F80
00003F80
00003F80
00003F80
00003F80
00003F80
00003F80
00003F80
00003F80
00003F80
00003F80
00003F80
00003F80
00003F80
00003F80
00003F80
00003F80
00003F80
00003F80
00003F80
00003F80
00003F80
00003F80
00003F80
00003F80
00003F80
00003F80
00003F80
FC003F80
FC003F80
FC003F80
FE003F80
FF007F80
FF80FF80
FFFFFF00
3FFFFE00
1FFFFC00
0FFFF800
07FFF000
03FFE000
ENDCHAR
STARTCHAR 006B
ENCODING 107
SWIDTH 285 0
DWIDTH 28 0
BBX 25 43 0 0
BITMAP
FC000000
FC000000
FC000000
FC000000
FC000000
FC000000
FC000000
FC000000
FC000000
FC000000
FC000000
FC000000
FC003F80
FC003F80
FC003F80
FC003F80
FC003F80
FC003F80
FC003F80
FC00FF80
FC03FF80
FC0FFF80
FC3FFE00
FCFFF800
FFFFE000
FFFF8000
FFFF0000
FFFFC000
FFFFF000
FFBFFC00
FE0FFF00
FC03FF80
FC00FF80
FC003F80
FC003F80
FC003F80
FC003F80
FC003F80
FC003F80
FC003F80
FC003F80
FC003F80
FC003F80
ENDCHAR
STARTCHAR 006C
ENCODING 108
SWIDTH 285 0
DWIDTH 28 0
BBX 25 43 0 0
BITMAP
1FFE0000
1FFE0000
1FFE0000
1FFE0000
1FFE0000
1FFE0000
007E0000
007E0000
007E0000
007E0000
007E0000
007E0000
007E0000
007E0000
007E0000
007E0000
007E0000
007E0000
007E0000
007E0000
007E0000
007E0000
007E0000
007E0000
007E0000
007E0000
007E0000
007E0000
007E0000
007E0000
007E0000
007E0000
007E0000
007E0000
007E0000
007E0000
007E0000
FFFFFF80
FFFFFF80
FFFFFF80
FFFFFF80
FFFFFF80
FFFFFF80
ENDCHAR
STARTCHAR 006D
ENCODING 109
SWIDTH 285 0
DWIDTH 28 0
BBX 25 31 0 0
BITMAP
FC79E000
FCFFF000
FDFFF800
FFFFFC00
FFFFFE00
FFFFFF00
FFFFFF80
FFFFFF80
FEFF7F80
FC7E3F80
FC7E3F80
FC7E3F80
FC7E3F80
FC7E3F80
FC7E3F80
FC7E3F80
FC7E3F80
FC7E3F80
FC7E3F80
FC7E3F80
FC7E3F80
FC7E3F80
FC7E3F80
FC7E3F80
FC7E3F80
FC7E3F80
FC7E3F80
FC7E3F80
FC7E3F80
FC7E3F80
FC7E3F80
ENDCHAR
STARTCHAR 006E
ENCODING 110
SWIDTH 285 0
DWIDTH 28 0
BBX 25 31 0 0
BITMAP
FC7FE000
FCFFF000
FDFFF800
FFFFFC00
FFFFFE00
FFFFFF00
FF80FF80
FF007F80
FE003F80
FC003F80
FC003F80
FC003F80
FC003F80
FC003F80
FC003F80
FC003F80
FC003F80
FC003F80
FC003F80
FC003F80
FC003F80
FC003F80
FC003F80
FC003F80
FC003F80
FC003F80
FC003F80
FC003F80
FC003F80
FC003F80
FC003F80
ENDCHAR
STARTCHAR 006F
ENCODING 111
SWIDTH 285 0
DWIDTH 28 0
BBX 25 31 0 0
BITMAP
03FFE000
07FFF000
0FFFF800
1FFFFC00
3FFFFE00
7FFFFF00
FF80FF80
FF007F80
FE003F80
FC003F80
FC003F80
FC003F80
FC003F80
FC003F80
FC003F80
FC003F80
FC003F80
FC003F80
FC003F80
FC003F80
FC003F80
FC003F80
FE003F80
FF007F80
FF80FF80
7FFFFF00
3FFFFE00
1FFFFC00
0FFFF800
07FFF000
03FFE000
ENDCHAR
STARTCHAR 0070
ENCODING 112
SWIDTH 285 0
DWIDTH 28 0
BBX 25 46 0 -15
BITMAP
FC7FE000
FCFFF000
FDFFF800
FFFFFC00
FFFFFE00
FFFFFF00
FF80FF80
FF007F80
FE003F80
FC003F80
FC003F80
FC003F80
FC003F80
FC003F80
FC003F80
FC003F80
FC003F80
FC003F80
FC003F80
FC003F80
FC003F80
FC003F80
FE003F80
FF007F80
FF80FF80
FFFFFF00
FFFFFE00
FFFFFC00
FDFFF800
FCFFF000
FC7FE000
FC000000
FC000000
FC000000
FC000000
FC000000
FC000000
FC000000
FC000000
FC000000
FC000000
FC000000
FC000000
FC000000
FC000000
FC000000
ENDCHAR
STARTCHAR 0071
ENCODING 113
SWIDTH 285 0
DWIDTH 28 0
BBX 25 46 0 -15
BITMAP
03FF3F80
07FFBF80
0FFFFF80
1FFFFF80
3FFFFF80
7FFFFF80
FF80FF80
FF007F80
FE003F80
FC003F80
FC003F80
FC003F80
FC003F80
FC003F80
FC003F80
FC003F80
FC003F80
FC003F80
FC003F80
FC003F80
FC003F80
FC003F80
FE003F80
FF007F80
FF80FF80
7FFFFF80
3FFFFF80
1FFFFF80
0FFFFF80
07FFBF80
03FF3F80
00003F80
00003F80
00003F80
00003F80
00003F80
00003F80
00003F80
00003F80
00003F80
00003F80
00003F80
00003F80
00003F80
00003F80
00003F80
ENDCHAR
STARTCHAR 0072
ENCODING 114
SWIDTH 285 0
DWIDTH 28 0
BBX 25 31 0 0
BITMAP
FC7FE000
FCFFF000
FDFFF800
FFFFFC00
FFFFFE00
FFFFFF00
FF80FF80
FF007F80
FE003F80
FC003F80
FC003F80
FC000000
FC000000
FC000000
FC000000
FC000000
FC000000
FC000000
FC000000
FC000000
FC000000
FC000000
FC000000
FC000000
FC000000
FC000000
FC000000
FC000000
FC000000
FC000000
FC000000
ENDCHAR
STARTCHAR 0073
ENCODING 115
SWIDTH 285 0
DWIDTH 28 0
BBX 25 31 0 0
BITMAP
03FFE000
07FFF000
0FFFF800
1FFFFC00
3FFFFE00
7FFFFF00
FF80FF80
FF007F80
FE003F80
FC003F80
FE003F80
FF000000
FF800000
7FFFE000
3FFFF000
1FFFF800
0FFFFC00
07FFFE00
03FFFF00
0000FF80
FC007F80
FC003F80
FE003F80
FF007F80
FF80FF80
FFFFFF00
3FFFFE00
1FFFFC00
0FFFF800
07FFF000
03FFE000
ENDCHAR
STARTCHAR 0074
ENCODING 116
SWIDTH 285 0
DWIDTH 28 0
BBX 25 43 0 0
BITMAP
1F800000
1F800000
1F800000
1F800000
1F800000
1F800000
1F800000
1F800000
1F800000
1F800000
1F800000
1F800000
FFFFF800
FFFFF800
FFFFF800
FFFFF800
FFFFF800
FFFFF800
1F800000
1F800000
1F800000
1F800000
1F800000
1F800000
1F800000
1F800000
1F800000
1F800000
1F800000
1F800000
1F800000
1F800000
1F800000
1F800000
1FC03F80
1FE07F80
1FF0FF80
0FFFFF00
07FFFE00
03FFFC00
01FFF800
00FFF000
007FE000
ENDCHAR
STARTCHAR 0075
ENCODING 117
SWIDTH 285 0
DWIDTH 28 0
BBX 25 31 0 0
BITMAP
FC003F80
FC003F80
FC003F80
FC003F80
FC003F80
FC003F80
FC003F80
FC003F80
FC003F80
FC003F80
FC003F80
FC003F80
FC003F80
FC003F80
FC003F80
FC003F80
FC003F80
FC003F80
FC003F80
FC003F80
FC003F80
FC003F80
FE003F80
FF007F80
FF80FF80
7FFFFF80
3FFFFF80
1FFFFF80
0FFFFF80
07FFBF80
03FF3F80
ENDCHAR
STARTCHAR 0076
ENCODING 118
SWIDTH 285 0
DWIDTH 28 0
BBX 25 31 0 0
BITMAP
FC003F80
FC003F80
FC003F80
FC003F80
FC003F80
FC003F80
FC003F80
FC003F80
FC003F80
FC003F80
FC003F80
FC003F80
FC003F00
7E003F00
7E007E00
3F007E00
3F00FC00
1F80FC00
1F81FC00
1FC1F800
0FC3F800
0FE3F000
07E7F000
07F7E000
03FFE000
03FFC000
01FFC000
01FF8000
00FF8000
00FF0000
007F0000
ENDCHAR
STARTCHAR 0077
ENCODING 119
SWIDTH 285 0
DWIDTH 28 0
BBX 25 31 0 0
BITMAP
FC003F80
FC003F80
FC003F80
FC003F80
FC003F80
FC003F80
FC003F80
FC003F80
FC003F80
FC003F80
FC003F80
FC003F80
FC003F80
FC003F80
FC003F80
FC7E3F80
FC7E3F80
FC7E3F80
FC7E3F80
FC7E3F80
FC7E3F80
FC7E3F80
FEFF7F80
FFFFFF80
FFFFFF80
7FFFFF00
3FFFFE00
1FFFFC00
0FF7F800
07E3F000
03C1E000
ENDCHAR
STARTCHAR 0078
ENCODING 120
SWIDTH 285 0
DWIDTH 28 0
BBX 25 31 0 0
BITMAP
FC003F80
FC003F80
FC003F80
FC003F80
FC003F80
FC003F80
FC003F80
FC003F80
FC003F80
FE003F80
FF80FF80
FFE3FF80
FFFFFF00
3FFFFC00
0FFFF000
03FFC000
0FFFF000
3FFFFC00
FFFFFF00
FFE3FF80
FF80FF80
FE003F80
FC003F80
FC003F80
FC003F80
FC003F80
FC003F80
FC003F80
FC003F80
FC003F80
FC003F80
ENDCHAR
STARTCHAR 0079
ENCODING 121
SWIDTH 285 0
DWIDTH 28 0
BBX 25 46 0 -15
BITMAP
FC003F80
FC003F80
FC003F80
FC003F80
FC003F80
FC003F80
FC003F80
FC003F80
FC003F80
FC003F80
FC003F80
FC003F80
FC003F00
7E003F00
7E007E00
3F007E00
3F00FC00
1F80FC00
1F81F800
0FC1F800
0FC3F000
07E3F000
07E7E000
03F7E000
03FFC000
01FFC000
01FF8000
00FF8000
00FF0000
007F0000
007E0000
007E0000
00FC0000
00FC0000
01F80000
01F80000
03F00000
03F00000
07E00000
07E00000
0FC00000
0FC00000
1F800000
1F800000
3F000000
3F000000
ENDCHAR
STARTCHAR 007A
ENCODING 122
SWIDTH 285 0
DWIDTH 28 0
BBX 25 31 0 0
BITMAP
FFFFFF80
FFFFFF80
FFFFFF80
FFFFFF80
FFFFFF80
FFFFFF80
0000FF80
0001FF80
0003FF00
0007FE00
000FFC00
001FF800
003FF000
007FE000
00FFC000
00FF8000
01FF0000
03FE0000
07FC0000
0FF80000
1FF00000
3FE00000
7FC00000
FF800000
FF000000
FFFFFF80
FFFFFF80
FFFFFF80
FFFFFF80
FFFFFF80
FFFFFF80
ENDCHAR
STARTCHAR 007B
ENCODING 123
SWIDTH 285 0
DWIDTH 28 0
BBX 18 55 3 -6
BITMAP
000FC0
001FC0
003FC0
007FC0
00FFC0
01FFC0
03FE00
03FC00
03F800
03F000
03F000
03F000
03F000
03F000
03F000
03F000
03F000
03F000
03F000
03F000
03F000
03F000
03F000
03F000
03F000
0FF000
3FE000
FF8000
3FE000
0FF000
03F000
03F000
03F000
03F000
03F000
03F000
03F000
03F000
03F000
03F000
03F000
03F000
03F000
03F000
03F000
03F000
03F800
03FC00
03FE00
01FFC0
00FFC0
007FC0
003FC0
001FC0
000FC0
ENDCHAR
STARTCHAR 007C
ENCODING 124
SWIDTH 285 0
DWIDTH 28 0
BBX 6 55 9 -6
BITMAP
FC
FC
FC
FC
FC
FC
FC
FC
FC
FC
FC
FC
FC
FC
FC
FC
FC
FC
FC
FC
FC
FC
FC
FC
FC
FC
FC
FC
FC
FC
FC
FC
FC
FC
FC
FC
FC
FC
FC
FC
FC
FC
FC
FC
FC
FC
FC
FC
FC
FC
FC
FC
FC
FC
FC
ENDCHAR
STARTCHAR 007D
ENCODING 125
SWIDTH 285 0
DWIDTH 28 0
BBX 18 55 3 -6
BITMAP
FE0000
FF0000
FF8000
FFC000
FFE000
FFF000
0FF000
07F000
03F000
03F000
03F000
03F000
03F000
03F000
03F000
03F000
03F000
03F000
03F000
03F000
03F000
03F000
03F000
03F000
03F000
03FC00
01FF00
007FC0
01FF00
03FC00
03F000
03F000
03F000
03F000
03F000
03F000
03F000
03F000
03F000
03F000
03F000
03F000
03F000
03F000
03F000
03F000
03F000
07F000
0FF000
FFF000
FFE000
FFC000
FF8000
FF0000
FE0000
ENDCHAR
STARTCHAR 007E
ENCODING 126
SWIDTH 285 0
DWIDTH 28 0
BBX 18 12 3 15
BITMAP
1E03C0
3F03C0
7F83C0
FFC3C0
FFE3C0
FFF3C0
F9FFC0
F8FFC0
F87FC0
F83FC0
F81F80
F80F00
ENDCHAR
STARTCHAR 00A1
ENCODING 161
SWIDTH 285 0
DWIDTH 28 0
BBX 6 42 9 -15
BITMAP
FC
FC
FC
FC
FC
FC
00
00
00
00
00
FC
FC
FC
FC
FC
FC
FC
FC
FC
FC
FC
FC
FC
FC
FC
FC
FC
FC
FC
FC
FC
FC
FC
FC
FC
FC
FC
FC
FC
FC
FC
ENDCHAR
STARTCHAR 00A2
ENCODING 162
SWIDTH 285 0
DWIDTH 28 0
BBX 25 43 0 0
BITMAP
007E0000
007E0000
007E0000
007E0000
007E0000
007E0000
03FFE000
07FFF000
0FFFF800
1FFFFC00
3FFFFE00
7FFFFF00
FFFEFF80
FF7E7F80
FE7E3F80
FC7E3F80
FC7E3F80
FC7E0000
FC7E0000
FC7E0000
FC7E0000
FC7E0000
FC7E0000
FC7E0000
FC7E0000
FC7E0000
FC7E3F80
FC7E3F80
FE7E3F80
FF7E7F80
FFFEFF80
7FFFFF00
3FFFFE00
1FFFFC00
0FFFF800
07FFF000
03FFE000
007E0000
007E0000
007E0000
007E0000
007E0000
007E0000
ENDCHAR
STARTCHAR 00A3
ENCODING 163
SWIDTH 285 0
DWIDTH 28 0
BBX 25 43 0 0
BITMAP
000FE000
001FF000
003FF800
007FFC00
00FFFE00
01FFFF00
03FC7F80
03F83F80
03F03F80
03F03F80
03F00000
03F00000
03F00000
03F00000
03F00000
03F00000
03F00000
03F00000
03F00000
1FFFC000
1FFFC000
1FFFC000
1FFFC000
1FFFC000
1FFFC000
03F00000
03F00000
03F00000
03F00000
03F00000
03F00000
03F00000
07F00000
0FF00000
1FF00000
3FE00000
7FC00000
FFFFFF80
FFFFFF80
FFFFFF80
FFFFFF80
FFFFFF80
FFFFFF80
ENDCHAR
STARTCHAR 00A4
ENCODING 164
SWIDTH 285 0
DWIDTH 28 0
BBX 25 25 0 9
BITMAP
10000400
38000E00
7C001F00
FE7F3F80
7FFFFE00
3FFFFC00
1FFFF800
0FFFF000
0FF7F800
1FE3F800
1FC1F800
1F80F800
1F007800
1F80F800
1FC1F800
1FE3F800
0FF7F800
0FFFF000
1FFFF800
3FFFFC00
7FFFFE00
FE7F3F00
7C001F80
38000E00
10000400
ENDCHAR
STARTCHAR 00A5
ENCODING 165
SWIDTH 285 0
DWIDTH 28 0
BBX 25 43 0 0
BITMAP
FC003F80
7E003F00
7E007E00
3F007E00
3F00FC00
1F80FC00
1F81F800
0FC1F800
0FC3F000
07E3F000
07E7E000
03F7E000
03FFC000
01FFC000
01FFC000
00FF8000
00FF8000
00FF0000
007F0000
1FFFF800
1FFFF800
1FFFF800
1FFFF800
1FFFF800
1FFFF800
007E0000
007E0000
007E0000
007E0000
1FFFF800
1FFFF800
1FFFF800
1FFFF800
1FFFF800
1FFFF800
007E0000
007E0000
007E0000
007E0000
007E0000
007E0000
007E0000
007E0000
ENDCHAR
STARTCHAR 00A6
ENCODING 166
SWIDTH 285 0
DWIDTH 28 0
BBX 6 55 9 -6
BITMAP
FC
FC
FC
FC
FC
FC
FC
FC
FC
FC
FC
FC
FC
FC
FC
FC
FC
FC
FC
FC
FC
00
00
00
00
00
00
00
00
00
00
00
00
00
FC
FC
FC
FC
FC
FC
FC
FC
FC
FC
FC
FC
FC
FC
FC
FC
FC
FC
FC
FC
FC
ENDCHAR
STARTCHAR 00A7
ENCODING 167
SWIDTH 285 0
DWIDTH 28 0
BBX 25 58 0 -15
BITMAP
03FFE000
07FFF000
0FFFF800
1FFFFC00
3FFFFE00
7FFFFF00
FF80FF80
FF007F80
FE003F80
FC003F80
FC003F80
FC000000
FC000000
FE000000
FF000000
FF800000
7FC00000
3FE00000
1FF00000
0FFFE000
0FFFF000
1FFFF800
3FFFFC00
7FFFFE00
FFFFFF00
FF80FF80
FF007F80
FE003F80
FC003F80
FC003F80
FC003F80
FE003F80
FF007F80
FF80FF80
7FFFFF00
3FFFFE00
1FFFFC00
0FFFF800
07FFF000
03FFF800
0007FC00
0003FE00
0001FF00
0000FF80
00007F80
00003F80
00003F80
FC003F80
FC003F80
FE003F80
FF007F80
FF80FF80
FFFFFF00
3FFFFE00
1FFFFC00
0FFFF800
07FFF000
03FFE000
ENDCHAR
STARTCHAR 00A8
ENCODING 168
SWIDTH 285 0
DWIDTH 28 0
BBX 18 6 3 37
BITMAP
FC0FC0
FC0FC0
FC0FC0
FC0FC0
FC0FC0
FC0FC0
ENDCHAR
STARTCHAR 00A9
ENCODING 169
SWIDTH 285 0
DWIDTH 28 0
BBX 25 34 0 9
BITMAP
03FFE000
07FFF000
0FFFF800
1E007C00
3C003E00
78001F00
F07F0F80
E0FF8780
E1FFC780
E3E3C780
E3C1C780
E381C780
E3800780
E3800780
E3800780
E3800780
E3800780
E3800780
E3800780
E3800780
E3800780
E3800780
E381C780
E3C1C780
E3E3C780
E1FFC780
E0FF8780
F07F0F80
78001F00
3C003E00
1E007C00
0FFFF800
07FFF000
03FFE000
ENDCHAR
STARTCHAR 00AC
ENCODING 172
SWIDTH 285 0
DWIDTH 28 0
BBX 25 12 0 12
BITMAP
FFFFFF80
FFFFFF80
FFFFFF80
FFFFFF80
FFFFFF80
FFFFFF80
00003F80
00003F80
00003F80
00003F80
00003F80
00003F80
ENDCHAR
STARTCHAR 00AD
ENCODING 173
SWIDTH 285 0
DWIDTH 28 0
BBX 12 6 6 18
BITMAP
FFF0
FFF0
FFF0
FFF0
FFF0
FFF0
ENDCHAR
STARTCHAR 00AE
ENCODING 174
SWIDTH 285 0
DWIDTH 28 0
BBX 25 34 0 9
BITMAP
03FFE000
07FFF000
0FFFF800
1E007C00
3C003E00
78001F00
F3FF0F80
E3FF8780
E3FFC780
E383C780
E381C780
E381C780
E381C780
E381C780
E381C780
E3FFC780
E3FF8780
E3FF0780
E3870780
E3870780
E3838780
E3838780
E381C780
E381C780
E381C780
E381C780
E381C780
F0000F80
78001F00
3C003E00
1E007C00
0FFFF800
07FFF000
03FFE000
ENDCHAR
STARTCHAR 00AF
ENCODING 175
SWIDTH 285 0
DWIDTH 28 0
BBX 18 6 3 37
BITMAP
FFFFC0
FFFFC0
FFFFC0
FFFFC0
FFFFC0
FFFFC0
ENDCHAR
STARTCHAR 00B0
ENCODING 176
SWIDTH 285 0
DWIDTH 28 0
BBX 12 12 6 31
BITMAP
1FC0
3FE0
7FF0
F0F0
E070
E070
E070
E070
F070
7FF0
3FE0
1FC0
ENDCHAR
STARTCHAR 00B1
ENCODING 177
SWIDTH 285 0
DWIDTH 28 0
BBX 25 37 0 3
BITMAP
007E0000
007E0000
007E0000
007E0000
007E0000
007E0000
007E0000
007E0000
007E0000
FFFFFF80
FFFFFF80
FFFFFF80
FFFFFF80
FFFFFF80
FFFFFF80
007E0000
007E0000
007E0000
007E0000
007E0000
007E0000
007E0000
007E0000
007E0000
00000000
00000000
00000000
00000000
00000000
00000000
00000000
FFFFFF80
FFFFFF80
FFFFFF80
FFFFFF80
FFFFFF80
FFFFFF80
ENDCHAR
STARTCHAR 00B4
ENCODING 180
SWIDTH 285 0
DWIDTH 28 0
BBX 12 15 6 28
BITMAP
00F0
01F0
03E0
03E0
07C0
07C0
0F80
0F80
1F00
1F00
3E00
3E00
7C00
7C00
F800
ENDCHAR
STARTCHAR 00B5
ENCODING 181
SWIDTH 285 0
DWIDTH 28 0
BBX 25 46 0 -15
BITMAP
FC003F80
FC003F80
FC003F80
FC003F80
FC003F80
FC003F80
FC003F80
FC003F80
FC003F80
FC003F80
FC003F80
FC003F80
FC003F80
FC003F80
FC003F80
FC003F80
FC003F80
FC003F80
FC003F80
FC007F80
FC00FF80
FC01FF80
FE03FF80
FF07FF80
FFFFFF80
FFFFBF80
FFFF3F80
FFFE3F80
FDFC3F80
FCF83F80
FC703F80
FC000000
FC000000
FC000000
FC000000
FC000000
FC000000
FC000000
FC000000
FC000000
FC000000
FC000000
FC000000
FC000000
FC000000
FC000000
ENDCHAR
STARTCHAR 00B6
ENCODING 182
SWIDTH 285 0
DWIDTH 28 0
BBX 25 58 0 -15
BITMAP
03FFFF80
07FFFF80
0FFFFF80
1FFFFF80
3FFFFF80
7FFFFF80
FFFE3F80
FFFE3F80
FFFE3F80
FFFE3F80
FFFE3F80
FFFE3F80
FFFE3F80
FFFE3F80
FFFE3F80
FFFE3F80
FFFE3F80
FFFE3F80
FFFE3F80
7FFE3F80
3FFE3F80
1FFE3F80
0FFE3F80
07FE3F80
007E3F80
007E3F80
007E3F80
007E3F80
007E3F80
007E3F80
007E3F80
007E3F80
007E3F80
007E3F80
007E3F80
007E3F80
007E3F80
007E3F80
007E3F80
007E3F80
007E3F80
007E3F80
007E3F80
007E3F80
007E3F80
007E3F80
007E3F80
007E3F80
007E3F80
007E3F80
007E3F80
007E3F80
007E3F80
007E3F80
007E3F80
007E3F80
007E3F80
007E3F80
ENDCHAR
STARTCHAR 00B7
ENCODING 183
SWIDTH 285 0
DWIDTH 28 0
BBX 12 12 6 15
BITMAP
FFF0
FFF0
FFF0
FFF0
FFF0
FFF0
FFF0
FFF0
FFF0
FFF0
FFF0
FFF0
ENDCHAR
STARTCHAR 00B8
ENCODING 184
SWIDTH 285 0
DWIDTH 28 0
BBX 12 11 6 -11
BITMAP
1F80
1F80
0FC0
07E0
03F0
03F0
FFF0
FFF0
FFF0
FFE0
FFC0
ENDCHAR
STARTCHAR 00BF
ENCODING 191
SWIDTH 285 0
DWIDTH 28 0
BBX 25 42 0 -15
BITMAP
007E0000
007E0000
007E0000
007E0000
007E0000
007E0000
00000000
00000000
00000000
00000000
00000000
007E0000
007E0000
007E0000
007E0000
007E0000
007E0000
007E0000
00FE0000
01FE0000
03FE0000
07FE0000
0FFC0000
1FF80000
3FF00000
7FE00000
FFC00000
FF800000
FF000000
FE000000
FC003F80
FC003F80
FC003F80
FE003F80
FF007F80
FF80FF80
FFFFFF00
3FFFFE00
1FFFFC00
0FFFF800
07FFF000
03FFE000
ENDCHAR
STARTCHAR 00C0
ENCODING 192
SWIDTH 285 0
DWIDTH 28 0
BBX 25 64 0 0
BITMAP
03E00000
01E00000
01F00000
00F00000
00F80000
00780000
007C0000
003C0000
003E0000
001F0000
001F0000
000F0000
000F8000
0007C000
0007C000
00000000
00000000
00000000
00000000
00000000
00000000
03FFE000
07FFF000
0FFFF800
1FFFFC00
3FFFFE00
7FFFFF00
FF80FF80
FF007F80
FE003F80
FC003F80
FC003F80
FC003F80
FC003F80
FC003F80
FC003F80
FC003F80
FC003F80
FC003F80
FC003F80
FFFFFF80
FFFFFF80
FFFFFF80
FFFFFF80
FFFFFF80
FFFFFF80
FC003F80
FC003F80
FC003F80
FC003F80
FC003F80
FC003F80
FC003F80
FC003F80
FC003F80
FC003F80
FC003F80
FC003F80
FC003F80
FC003F80
FC003F80
FC003F80
FC003F80
FC003F80
ENDCHAR
STARTCHAR 00C1
ENCODING 193
SWIDTH 285 0
DWIDTH 28 0
BBX 25 64 0 0
BITMAP
0003C000
0007C000
00078000
000F8000
000F0000
001F0000
001E0000
003E0000
007C0000
007C0000
00F80000
00F80000
01F00000
01F00000
03E00000
00000000
00000000
00000000
00000000
00000000
00000000
03FFE000
07FFF000
0FFFF800
1FFFFC00
3FFFFE00
7FFFFF00
FF80FF80
FF007F80
FE003F80
FC003F80
FC003F80
FC003F80
FC003F80
FC003F80
FC003F80
FC003F80
FC003F80
FC003F80
FC003F80
FFFFFF80
FFFFFF80
FFFFFF80
FFFFFF80
FFFFFF80
FFFFFF80
FC003F80
FC003F80
FC003F80
FC003F80
FC003F80
FC003F80
FC003F80
FC003F80
FC003F80
FC003F80
FC003F80
FC003F80
FC003F80
FC003F80
FC003F80
FC003F80
FC003F80
FC003F80
ENDCHAR
STARTCHAR 00C2
ENCODING 194
SWIDTH 285 0
DWIDTH 28 0
BBX 25 64 0 0
BITMAP
00080000
00180000
001C0000
003C0000
003E0000
007E0000
007F0000
00FF0000
00FF8000
01FF8000
01F7C000
03E7C000
03E3E000
07C1E000
0781F000
00000000
00000000
00000000
00000000
00000000
00000000
03FFE000
07FFF000
0FFFF800
1FFFFC00
3FFFFE00
7FFFFF00
FF80FF80
FF007F80
FE003F80
FC003F80
FC003F80
FC003F80
FC003F80
FC003F80
FC003F80
FC003F80
FC003F80
FC003F80
FFFFFF80
FFFFFF80
FFFFFF80
FFFFFF80
FFFFFF80
FFFFFF80
FFFFFF80
FC003F80
FC003F80
FC003F80
FC003F80
FC003F80
FC003F80
FC003F80
FC003F80
FC003F80
FC003F80
FC003F80
FC003F80
FC003F80
FC003F80
FC003F80
FC003F80
FC003F80
FC003F80
ENDCHAR
STARTCHAR 00C3
ENCODING 195
SWIDTH 285 0
DWIDTH 28 0
BBX 25 61 0 0
BITMAP
03C07800
07E07800
0FF07800
1FF87800
1FFC7800
1FFE7800
1F3FF800
1F1FF800
1F0FF800
1F07F800
1F03F000
1F01E000
00000000
00000000
00000000
00000000
00000000
00000000
03FFE000
07FFF000
0FFFF800
1FFFFC00
3FFFFE00
7FFFFF00
FF80FF80
FF007F80
FE003F80
FC003F80
FC003F80
FC003F80
FC003F80
FC003F80
FC003F80
FC003F80
FC003F80
FC003F80
FC003F80
FFFFFF80
FFFFFF80
FFFFFF80
FFFFFF80
FFFFFF80
FFFFFF80
FC003F80
FC003F80
FC003F80
FC003F80
FC003F80
FC003F80
FC003F80
FC003F80
FC003F80
FC003F80
FC003F80
FC003F80
FC003F80
FC003F80
FC003F80
FC003F80
FC003F80
FC003F80
ENDCHAR
STARTCHAR 00C4
ENCODING 196
SWIDTH 285 0
DWIDTH 28 0
BBX 25 55 0 0
BITMAP
1F81F800
1F81F800
1F81F800
1F81F800
1F81F800
1F81F800
00000000
00000000
00000000
00000000
00000000
00000000
03FFE000
07FFF000
0FFFF800
1FFFFC00
3FFFFE00
7FFFFF00
FF80FF80
FF007F80
FE003F80
FC003F80
FC003F80
FC003F80
FC003F80
FC003F80
FC003F80
FC003F80
FC003F80
FC003F80
FC003F80
FFFFFF80
FFFFFF80
FFFFFF80
FFFFFF80
FFFFFF80
FFFFFF80
FC003F80
FC003F80
FC003F80
FC003F80
FC003F80
FC003F80
FC003F80
FC003F80
FC003F80
FC003F80
FC003F80
FC003F80
FC003F80
FC003F80
FC003F80
FC003F80
FC003F80
FC003F80
ENDCHAR
STARTCHAR 00C5
ENCODING 197
SWIDTH 285 0
DWIDTH 28 0
BBX 25 61 0 0
BITMAP
007F0000
00FF8000
01FFC000
03C3C000
0381C000
0381C000
0381C000
0381C000
03C3C000
01FFC000
00FF8000
007F0000
00000000
00000000
00000000
00000000
00000000
00000000
03FFE000
07FFF000
0FFFF800
1FFFFC00
3FFFFE00
7FFFFF00
FF80FF80
FF007F80
FE003F80
FC003F80
FC003F80
FC003F80
FC003F80
FC003F80
FC003F80
FC003F80
FC003F80
FC003F80
FC003F80
FFFFFF80
FFFFFF80
FFFFFF80
FFFFFF80
FFFFFF80
FFFFFF80
FC003F80
FC003F80
FC003F80
FC003F80
FC003F80
FC003F80
FC003F80
FC003F80
FC003F80
FC003F80
FC003F80
FC003F80
FC003F80
FC003F80
FC003F80
FC003F80
FC003F80
FC003F80
ENDCHAR
STARTCHAR 00C7
ENCODING 199
SWIDTH 285 0
DWIDTH 28 0
BBX 25 54 0 -11
BITMAP
03FFE000
07FFF000
0FFFF800
1FFFFC00
3FFFFE00
7FFFFF00
FF80FF80
FF007F80
FE003F80
FC003F80
FC003F80
FC003F80
FC000000
FC000000
FC000000
FC000000
FC000000
FC000000
FC000000
FC000000
FC000000
FC000000
FC000000
FC000000
FC000000
FC000000
FC000000
FC000000
FC000000
FC000000
FC000000
FC003F80
FC003F80
FC003F80
FE003F80
FF007F80
FF80FF80
7FFFFF00
3FFFFE00
1FFFFC00
0FFFF800
07FFF000
03FFE000
007E0000
007E0000
003F0000
001F8000
000FC000
000FC000
03FFC000
03FFC000
03FFC000
03FF8000
03FF0000
ENDCHAR
STARTCHAR 00C8
ENCODING 200
SWIDTH 285 0
DWIDTH 28 0
BBX 25 64 0 0
BITMAP
03E00000
01E00000
01F00000
00F00000
00F80000
00780000
007C0000
003C0000
003E0000
001E0000
001F0000
000F0000
000F8000
00078000
0007C000
00000000
00000000
00000000
00000000
00000000
00000000
FFFFFF80
FFFFFF80
FFFFFF80
FFFFFF80
FFFFFF80
FFFFFF80
FC000000
FC000000
FC000000
FC000000
FC000000
FC000000
FC000000
FC000000
FC000000
FC000000
FC000000
FC000000
FC000000
FFFFC000
FFFFC000
FFFFC000
FFFFC000
FFFFC000
FFFFC000
FC000000
FC000000
FC000000
FC000000
FC000000
FC000000
FC000000
FC000000
FC000000
FC000000
FC000000
FC000000
FFFFFF80
FFFFFF80
FFFFFF80
FFFFFF80
FFFFFF80
FFFFFF80
ENDCHAR
STARTCHAR 00C9
ENCODING 201
SWIDTH 285 0
DWIDTH 28 0
BBX 25 64 0 0
BITMAP
0003C000
0007C000
00078000
000F8000
000F0000
001F0000
001E0000
003E0000
003C0000
007C0000
00780000
00F80000
00F00000
01F00000
01E00000
02000000
00000000
00000000
00000000
00000000
00000000
FFFFFF80
FFFFFF80
FFFFFF80
FFFFFF80
FFFFFF80
FFFFFF80
FC000000
FC000000
FC000000
FC000000
FC000000
FC000000
FC000000
FC000000
FC000000
FC000000
FC000000
FC000000
FC000000
FFFFC000
FFFFC000
FFFFC000
FFFFC000
FFFFC000
FFFFC000
FC000000
FC000000
FC000000
FC000000
FC000000
FC000000
FC000000
FC000000
FC000000
FC000000
FC000000
FC000000
FFFFFF80
FFFFFF80
FFFFFF80
FFFFFF80
FFFFFF80
FFFFFF80
ENDCHAR
STARTCHAR 00CA
ENCODING 202
SWIDTH 285 0
DWIDTH 28 0
BBX 25 64 0 0
BITMAP
00080000
00180000
001C0000
003C0000
003E0000
007E0000
007F0000
00FF0000
00FF8000
01F78000
01E7C000
03E3C000
03C3E000
07C1E000
0781F000
00000000
00000000
00000000
00000000
00000000
00000000
FFFFFF80
FFFFFF80
FFFFFF80
FFFFFF80
FFFFFF80
FFFFFF80
FFFE0000
FC000000
FC000000
FC000000
FC000000
FC000000
FC000000
FC000000
FC000000
FC000000
FC000000
FC000000
FC000000
FFFFC000
FFFFC000
FFFFC000
FFFFC000
FFFFC000
FFFFC000
FC000000
FC000000
FC000000
FC000000
FC000000
FC000000
FC000000
FC000000
FC000000
FC000000
FC000000
FC000000
FFFFFF80
FFFFFF80
FFFFFF80
FFFFFF80
FFFFFF80
FFFFFF80
ENDCHAR
STARTCHAR 00CB
ENCODING 203
SWIDTH 285 0
DWIDTH 28 0
BBX 25 55 0 0
BITMAP
1F81F800
1F81F800
1F81F800
1F81F800
1F81F800
1F81F800
00000000
00000000
00000000
00000000
00000000
00000000
FFFFFF80
FFFFFF80
FFFFFF80
FFFFFF80
FFFFFF80
FFFFFF80
FC000000
FC000000
FC000000
FC000000
FC000000
FC000000
FC000000
FC000000
FC000000
FC000000
FC000000
FC000000
FC000000
FFFFC000
FFFFC000
FFFFC000
FFFFC000
FFFFC000
FFFFC000
FC000000
FC000000
FC000000
FC000000
FC000000
FC000000
FC000000
FC000000
FC000000
FC000000
FC000000
FC000000
FFFFFF80
FFFFFF80
FFFFFF80
FFFFFF80
FFFFFF80
FFFFFF80
ENDCHAR
STARTCHAR 00CC
ENCODING 204
SWIDTH 285 0
DWIDTH 28 0
BBX 25 64 0 0
BITMAP
03E00000
01E00000
01F00000
00F00000
00F80000
00780000
007C0000
003C0000
003E0000
001E0000
001F0000
000F0000
000F8000
00078000
0007C000
00000000
00000000
00000000
00000000
00000000
00000000
FFFFFF80
FFFFFF80
FFFFFF80
FFFFFF80
FFFFFF80
FFFFFF80
007E0000
007E0000
007E0000
007E0000
007E0000
007E0000
007E0000
007E0000
007E0000
007E0000
007E0000
007E0000
007E0000
007E0000
007E0000
007E0000
007E0000
007E0000
007E0000
007E0000
007E0000
007E0000
007E0000
007E0000
007E0000
007E0000
007E0000
007E0000
007E0000
007E0000
007E0000
FFFFFF80
FFFFFF80
FFFFFF80
FFFFFF80
FFFFFF80
FFFFFF80
ENDCHAR
STARTCHAR 00CD
ENCODING 205
SWIDTH 285 0
DWIDTH 28 0
BBX 25 64 0 0
BITMAP
0003C000
0007C000
00078000
000F8000
000F0000
001F0000
001E0000
003E0000
003C0000
007C0000
00780000
00F80000
00F00000
01F00000
01E00000
02000000
00000000
00000000
00000000
00000000
00000000
FFFFFF80
FFFFFF80
FFFFFF80
FFFFFF80
FFFFFF80
FFFFFF80
007E0000
007E0000
007E0000
007E0000
007E0000
007E0000
007E0000
007E0000
007E0000
007E0000
007E0000
007E0000
007E0000
007E0000
007E0000
007E0000
007E0000
007E0000
007E0000
007E0000
007E0000
007E0000
007E0000
007E0000
007E0000
007E0000
007E0000
007E0000
007E0000
007E0000
007E0000
FFFFFF80
FFFFFF80
FFFFFF80
FFFFFF80
FFFFFF80
FFFFFF80
ENDCHAR
STARTCHAR 00CE
ENCODING 206
SWIDTH 285 0
DWIDTH 28 0
BBX 25 64 0 0
BITMAP
00080000
00180000
001C0000
003C0000
003E0000
007E0000
007F0000
00FF0000
00FF8000
01F78000
01E7C000
03E3C000
03C3E000
07C1E000
0781F000
00000000
00000000
00000000
00000000
00000000
00000000
FFFFFF80
FFFFFF80
FFFFFF80
FFFFFF80
FFFFFF80
FFFFFF80
007E0000
007E0000
007E0000
007E0000
007E0000
007E0000
007E0000
007E0000
007E0000
007E0000
007E0000
007E0000
007E0000
007E0000
007E0000
007E0000
007E0000
007E0000
007E0000
007E0000
007E0000
007E0000
007E0000
007E0000
007E0000
007E0000
007E0000
007E0000
007E0000
007E0000
007E0000
FFFFFF80
FFFFFF80
FFFFFF80
FFFFFF80
FFFFFF80
FFFFFF80
ENDCHAR
STARTCHAR 00CF
ENCODING 207
SWIDTH 285 0
DWIDTH 28 0
BBX 25 55 0 0
BITMAP
1F81F800
1F81F800
1F81F800
1F81F800
1F81F800
1F81F800
00000000
00000000
00000000
00000000
00000000
00000000
FFFFFF80
FFFFFF80
FFFFFF80
FFFFFF80
FFFFFF80
FFFFFF80
007E0000
007E0000
007E0000
007E0000
007E0000
007E0000
007E0000
007E0000
007E0000
007E0000
007E0000
007E0000
007E0000
007E0000
007E0000
007E0000
007E0000
007E0000
007E0000
007E0000
007E0000
007E0000
007E0000
007E0000
007E0000
007E0000
007E0000
007E0000
007E0000
007E0000
007E0000
FFFFFF80
FFFFFF80
FFFFFF80
FFFFFF80
FFFFFF80
FFFFFF80
ENDCHAR
STARTCHAR 00D0
ENCODING 208
SWIDTH 285 0
DWIDTH 28 0
BBX 25 43 0 0
BITMAP
1FFF0000
1FFF8000
1FFFC000
1FFFE000
1FFFF000
1FFFF800
1F87FC00
1F83FE00
1F81FF00
1F80FF80
1F807F80
1F803F80
1F803F80
1F803F80
1F803F80
1F803F80
1F803F80
1F803F80
FFF03F80
FFFE3F80
FFFE3F80
FFFE3F80
FFFE3F80
FFFE3F80
FFFE3F80
1F803F80
1F803F80
1F803F80
1F803F80
1F803F80
1F803F80
1F803F80
1F807F80
1F80FF80
1F81FF00
1F83FE00
1F87FC00
1FFFF800
1FFFF000
1FFFE000
1FFFC000
1FFF8000
1FFF0000
ENDCHAR
STARTCHAR 00D1
ENCODING 209
SWIDTH 285 0
DWIDTH 28 0
BBX 25 61 0 0
BITMAP
03C07800
07E07800
0FF07800
1FF87800
1FFC7800
1FFE7800
1F3FF800
1F1FF800
1F0FF800
1F07F800
1F03F000
1F01E000
00000000
00000000
00000000
00000000
00000000
00000000
F8003F80
F8003F80
FC003F80
FC003F80
FE003F80
FE003F80
FF003F80
FF003F80
FF803F80
FF803F80
FFC03F80
FFC03F80
FFE03F80
FFE03F80
FFF03F80
FFF03F80
FDF83F80
FDF83F80
FCFC3F80
FCFC3F80
FC7E3F80
FC7E3F80
FC3F3F80
FC3F3F80
FC1FBF80
FC1FBF80
FC0FFF80
FC0FFF80
FC07FF80
FC07FF80
FC03FF80
FC03FF80
FC01FF80
FC01FF80
FC00FF80
FC00FF80
FC007F80
FC007F80
FC003F80
FC003F80
FC001F80
FC001F80
FC000F80
ENDCHAR
STARTCHAR 00D2
ENCODING 210
SWIDTH 285 0
DWIDTH 28 0
BBX 25 64 0 0
BITMAP
03E00000
01E00000
01F00000
00F00000
00F80000
00780000
007C0000
003C0000
003E0000
001E0000
001F0000
000F0000
000F8000
00078000
0007C000
00000000
00000000
00000000
00000000
00000000
00000000
03FFE000
07FFF000
0FFFF800
1FFFFC00
3FFFFE00
7FFFFF00
FF80FF80
FF007F80
FE003F80
FC003F80
FC003F80
FC003F80
FC003F80
FC003F80
FC003F80
FC003F80
FC003F80
FC003F80
FC003F80
FC003F80
FC003F80
FC003F80
FC003F80
FC003F80
FC003F80
FC003F80
FC003F80
FC003F80
FC003F80
FC003F80
FC003F80
FC003F80
FC003F80
FC003F80
FE003F80
FF007F80
FF80FF80
7FFFFF00
3FFFFE00
1FFFFC00
0FFFF800
07FFF000
03FFE000
ENDCHAR
STARTCHAR 00D3
ENCODING 211
SWIDTH 285 0
DWIDTH 28 0
BBX 25 64 0 0
BITMAP
0003C000
0007C000
00078000
000F8000
000F0000
001F0000
001E0000
003E0000
003C0000
007C0000
00780000
00F80000
00F00000
01F00000
01E00000
02000000
00000000
00000000
00000000
00000000
00000000
03FFE000
07FFF000
0FFFF800
1FFFFC00
3FFFFE00
7FFFFF00
FF80FF80
FF007F80
FE003F80
FC003F80
FC003F80
FC003F80
FC003F80
FC003F80
FC003F80
FC003F80
FC003F80
FC003F80
FC003F80
FC003F80
FC003F80
FC003F80
FC003F80
FC003F80
FC003F80
FC003F80
FC003F80
FC003F80
FC003F80
FC003F80
FC003F80
FC003F80
FC003F80
FC003F80
FE003F80
FF007F80
FF80FF80
7FFFFF00
3FFFFE00
1FFFFC00
0FFFF800
07FFF000
03FFE000
ENDCHAR
STARTCHAR 00D4
ENCODING 212
SWIDTH 285 0
DWIDTH 28 0
BBX 25 64 0 0
BITMAP
00080000
00180000
001C0000
003C0000
003E0000
007E0000
007F0000
00FF0000
00FF8000
01F78000
01E7C000
03E3C000
03C3E000
07C1E000
0781F000
00000000
00000000
00000000
00000000
00000000
00000000
03FFE000
07FFF000
0FFFF800
1FFFFC00
3FFFFE00
7FFFFF00
FF80FF80
FF007F80
FE003F80
FC003F80
FC003F80
FC003F80
FC003F80
FC003F80
FC003F80
FC003F80
FC003F80
FC003F80
FC003F80
FC003F80
FC003F80
FC003F80
FC003F80
FC003F80
FC003F80
FC003F80
FC003F80
FC003F80
FC003F80
FC003F80
FC003F80
FC003F80
FC003F80
FC003F80
FE003F80
FF007F80
FF80FF80
7FFFFF00
3FFFFE00
1FFFFC00
0FFFF800
07FFF000
03FFE000
ENDCHAR
STARTCHAR 00D5
ENCODING 213
SWIDTH 285 0
DWIDTH 28 0
BBX 25 61 0 0
BITMAP
03C07800
07E07800
0FF07800
1FF87800
1FFC7800
1FFE7800
1F3FF800
1F1FF800
1F0FF800
1F07F800
1F03F000
1F01E000
00000000
00000000
00000000
00000000
00000000
00000000
03FFE000
07FFF000
0FFFF800
1FFFFC00
3FFFFE00
7FFFFF00
FF80FF80
FF007F80
FE003F80
FC003F80
FC003F80
FC003F80
FC003F80
FC003F80
FC003F80
FC003F80
FC003F80
FC003F80
FC003F80
FC003F80
FC003F80
FC003F80
FC003F80
FC003F80
FC003F80
FC003F80
FC003F80
FC003F80
FC003F80
FC003F80
FC003F80
FC003F80
FC003F80
FC003F80
FE003F80
FF007F80
FF80FF80
7FFFFF00
3FFFFE00
1FFFFC00
0FFFF800
07FFF000
03FFE000
ENDCHAR
STARTCHAR 00D6
ENCODING 214
SWIDTH 285 0
DWIDTH 28 0
BBX 25 55 0 0
BITMAP
1F81F800
1F81F800
1F81F800
1F81F800
1F81F800
1F81F800
00000000
00000000
00000000
00000000
00000000
00000000
03FFE000
07FFF000
0FFFF800
1FFFFC00
3FFFFE00
7FFFFF00
FF80FF80
FF007F80
FE003F80
FC003F80
FC003F80
FC003F80
FC003F80
FC003F80
FC003F80
FC003F80
FC003F80
FC003F80
FC003F80
FC003F80
FC003F80
FC003F80
FC003F80
FC003F80
FC003F80
FC003F80
FC003F80
FC003F80
FC003F80
FC003F80
FC003F80
FC003F80
FC003F80
FC003F80
FE003F80
FF007F80
FF80FF80
7FFFFF00
3FFFFE00
1FFFFC00
0FFFF800
07FFF000
03FFE000
ENDCHAR
STARTCHAR 00D7
ENCODING 215
SWIDTH 285 0
DWIDTH 28 0
BBX 18 25 3 9
BITMAP
FC0FC0
7E0FC0
7E1F80
3F1F80
3F3F00
1FBF00
1FFE00
0FFE00
0FFC00
07FC00
07F800
03F800
03F000
03F800
07F800
07FC00
0FFC00
0FFE00
1FFE00
1FBF00
3F3F00
3F1F80
7E1F80
7E0FC0
FC0FC0
ENDCHAR
STARTCHAR 00D8
ENCODING 216
SWIDTH 285 0
DWIDTH 28 0
BBX 25 43 0 0
BITMAP
03FFE000
07FFF000
0FFFF800
1FFFFC00
3FFFFE00
7FFFFF00
FF807F80
FF00FF80
FE00FF80
FC01FF80
FC01FF80
FC03FF80
FC03FF80
FC07FF80
FC07FF80
FC0FFF80
FC0FFF80
FC1FBF80
FC1FBF80
FC3F3F80
FC3F3F80
FC7E3F80
FC7E3F80
FCFC3F80
FCFC3F80
FDF83F80
FDF83F80
FFF03F80
FFF03F80
FFE03F80
FFE03F80
FFC03F80
FFC03F80
FF803F80
FF803F80
FF007F80
FF00FF80
7FFFFF00
3FFFFE00
1FFFFC00
0FFFF800
07FFF000
03FFE000
ENDCHAR
STARTCHAR 00D9
ENCODING 217
SWIDTH 285 0
DWIDTH 28 0
BBX 25 64 0 0
BITMAP
03E00000
01E00000
01F00000
00F00000
00F80000
00780000
007C0000
003C0000
003E0000
001E0000
001F0000
000F0000
000F8000
00078000
0007C000
00000000
00000000
00000000
00000000
00000000
00000000
FC003F80
FC003F80
FC003F80
FC003F80
FC003F80
FC003F80
FC003F80
FC003F80
FC003F80
FC003F80
FC003F80
FC003F80
FC003F80
FC003F80
FC003F80
FC003F80
FC003F80
FC003F80
FC003F80
FC003F80
FC003F80
FC003F80
FC003F80
FC003F80
FC003F80
FC003F80
FC003F80
FC003F80
FC003F80
FC003F80
FC003F80
FC003F80
FC003F80
FC003F80
FE003F80
FF007F80
FF80FF80
FFFFFF00
3FFFFE00
1FFFFC00
0FFFF800
07FFF000
03FFE000
ENDCHAR
STARTCHAR 00DA
ENCODING 218
SWIDTH 285 0
DWIDTH 28 0
BBX 25 64 0 0
BITMAP
0003C000
0007C000
00078000
000F8000
000F0000
001F0000
001E0000
003E0000
003C0000
007C0000
00780000
00F80000
00F00000
01F00000
01E00000
02000000
00000000
00000000
00000000
00000000
00000000
FC003F80
FC003F80
FC003F80
FC003F80
FC003F80
FC003F80
FC003F80
FC003F80
FC003F80
FC003F80
FC003F80
FC003F80
FC003F80
FC003F80
FC003F80
FC003F80
FC003F80
FC003F80
FC003F80
FC003F80
FC003F80
FC003F80
FC003F80
FC003F80
FC003F80
FC003F80
FC003F80
FC003F80
FC003F80
FC003F80
FC003F80
FC003F80
FC003F80
FC003F80
FE003F80
FF007F80
FF80FF80
FFFFFF00
3FFFFE00
1FFFFC00
0FFFF800
07FFF000
03FFE000
ENDCHAR
STARTCHAR 00DB
ENCODING 219
SWIDTH 285 0
DWIDTH 28 0
BBX 25 64 0 0
BITMAP
00080000
00180000
001C0000
003C0000
003E0000
007E0000
007F0000
00FF0000
00FF8000
01F78000
01E7C000
03E3C000
03C3E000
07C1E000
0781F000
00000000
00000000
00000000
00000000
00000000
00000000
FC003F80
FC003F80
FC003F80
FC003F80
FC003F80
FC003F80
FC003F80
FC003F80
FC003F80
FC003F80
FC003F80
FC003F80
FC003F80
FC003F80
FC003F80
FC003F80
FC003F80
FC003F80
FC003F80
FC003F80
FC003F80
FC003F80
FC003F80
FC003F80
FC003F80
FC003F80
FC003F80
FC003F80
FC003F80
FC003F80
FC003F80
FC003F80
FC003F80
FC003F80
FE003F80
FF007F80
FF80FF80
7FFFFF00
3FFFFE00
1FFFFC00
0FFFF800
07FFF000
03FFE000
ENDCHAR
STARTCHAR 00DC
ENCODING 220
SWIDTH 285 0
DWIDTH 28 0
BBX 25 55 0 0
BITMAP
1F81F800
1F81F800
1F81F800
1F81F800
1F81F800
1F81F800
00000000
00000000
00000000
00000000
00000000
00000000
FC003F80
FC003F80
FC003F80
FC003F80
FC003F80
FC003F80
FC003F80
FC003F80
FC003F80
FC003F80
FC003F80
FC003F80
FC003F80
FC003F80
FC003F80
FC003F80
FC003F80
FC003F80
FC003F80
FC003F80
FC003F80
FC003F80
FC003F80
FC003F80
FC003F80
FC003F80
FC003F80
FC003F80
FC003F80
FC003F80
FC003F80
FC003F80
FC003F80
FC003F80
FE003F80
FF007F80
FF80FF80
FFFFFF00
3FFFFE00
1FFFFC00
0FFFF800
07FFF000
03FFE000
ENDCHAR
STARTCHAR 00DD
ENCODING 221
SWIDTH 285 0
DWIDTH 28 0
BBX 25 64 0 0
BITMAP
0003C000
0007C000
00078000
000F8000
000F0000
001F0000
001E0000
003E0000
007C0000
007C0000
00F80000
00F80000
01F00000
01F00000
03E00000
00000000
00000000
00000000
00000000
00000000
00000000
FC003F80
FC003F80
FC003F80
FC003F00
7E003F00
7E007E00
3F007E00
3F00FC00
1F80FC00
1F81F800
0FC1F800
0FC3F000
07E3F000
07E7E000
03F7E000
03FFC000
01FFC000
01FF8000
00FF8000
00FF0000
007F0000
007E0000
007E0000
007E0000
007E0000
007E0000
007E0000
007E0000
007E0000
007E0000
007E0000
007E0000
007E0000
007E0000
007E0000
007E0000
007E0000
007E0000
007E0000
007E0000
007E0000
007E0000
007E0000
ENDCHAR
STARTCHAR 00DE
ENCODING 222
SWIDTH 285 0
DWIDTH 28 0
BBX 25 43 0 0
BITMAP
FC000000
FC000000
FC000000
FC000000
FC000000
FC000000
FC000000
FC000000
FC000000
FC7FE000
FCFFF000
FDFFF800
FFFFFC00
FFFFFE00
FFFFFF00
FF80FF80
FF007F80
FE003F80
FC003F80
FC003F80
FC003F80
FC003F80
FC003F80
FC003F80
FC003F80
FC003F80
FC003F80
FC003F80
FE003F80
FF007F80
FF80FF80
FFFFFF00
FFFFFE00
FFFFFC00
FDFFF800
FCFFF000
FC7FE000
FC000000
FC000000
FC000000
FC000000
FC000000
FC000000
ENDCHAR
STARTCHAR 00DF
ENCODING 223
SWIDTH 285 0
DWIDTH 28 0
BBX 25 43 0 0
BITMAP
03FF0000
07FF8000
0FFFC000
1FFFE000
3FFFF000
7FFFF800
FF87F800
FF03F800
FE01F800
FC01F800
FC03F800
FC07F800
FC0FF800
FC1FF000
FC3FE000
FC7FC000
FC7F8000
FC7F0000
FC7E0000
FC7F0000
FC7F8000
FC7FC000
FC3FE000
FC1FF000
FC0FF800
FC07FC00
FC03FE00
FC01FF00
FC00FF80
FC007F80
FC003F80
FC003F80
FC003F80
FC003F80
FC003F80
FC407F80
FC70FF80
FC7FFF00
FC7FFE00
FC7FFC00
FC7FF800
FC7FF000
FC1FE000
ENDCHAR
STARTCHAR 00E0
ENCODING 224
SWIDTH 285 0
DWIDTH 28 0
BBX 25 52 0 0
BITMAP
03E00000
01E00000
01F00000
00F00000
00F80000
00780000
007C0000
003C0000
003E0000
001E0000
001F0000
000F0000
000F8000
00078000
0007C000
00000000
00000000
00000000
00000000
00000000
00000000
03FF3F80
07FFBF80
0FFFFF80
1FFFFF80
3FFFFF80
7FFFFF80
FF80FF80
FF007F80
FE003F80
FC003F80
FC003F80
FC003F80
FC003F80
FC003F80
FC003F80
FC003F80
FC003F80
FC003F80
FC003F80
FC003F80
FC003F80
FC003F80
FE003F80
FF007F80
FF80FF80
7FFFFF80
3FFFFF80
1FFFFF80
0FFFFF80
07FFBF80
03FF3F80
ENDCHAR
STARTCHAR 00E1
ENCODING 225
SWIDTH 285 0
DWIDTH 28 0
BBX 25 52 0 0
BITMAP
0003C000
0007C000
00078000
000F8000
000F0000
001F0000
001E0000
003E0000
003C0000
007C0000
00780000
00F80000
00F00000
01F00000
01E00000
02000000
00000000
00000000
00000000
00000000
00000000
03FF3F80
07FFBF80
0FFFFF80
1FFFFF80
3FFFFF80
7FFFFF80
FF80FF80
FF007F80
FE003F80
FC003F80
FC003F80
FC003F80
FC003F80
FC003F80
FC003F80
FC003F80
FC003F80
FC003F80
FC003F80
FC003F80
FC003F80
FC003F80
FE003F80
FF007F80
FF80FF80
7FFFFF80
3FFFFF80
1FFFFF80
0FFFFF80
07FFBF80
03FF3F80
ENDCHAR
STARTCHAR 00E2
ENCODING 226
SWIDTH 285 0
DWIDTH 28 0
BBX 25 52 0 0
BITMAP
00080000
00180000
001C0000
003C0000
003E0000
007E0000
007F0000
00FF0000
00FF8000
01F78000
01E7C000
03E3C000
03C3E000
07C1E000
0781F000
00000000
00000000
00000000
00000000
00000000
00000000
03FF3F80
07FFBF80
0FFFFF80
1FFFFF80
3FFFFF80
7FFFFF80
FF80FF80
FF007F80
FE003F80
FC003F80
FC003F80
FC003F80
FC003F80
FC003F80
FC003F80
FC003F80
FC003F80
FC003F80
FC003F80
FC003F80
FC003F80
FC003F80
FE003F80
FF007F80
FF80FF80
7FFFFF80
3FFFFF80
1FFFFF80
0FFFFF80
07FFBF80
03FF3F80
ENDCHAR
STARTCHAR 00E3
ENCODING 227
SWIDTH 285 0
DWIDTH 28 0
BBX 25 49 0 0
BITMAP
03C07800
07E07800
0FF07800
1FF87800
1FFC7800
1FFE7800
1F3FF800
1F1FF800
1F0FF800
1F07F800
1F03F000
1F01E000
00000000
00000000
00000000
00000000
00000000
00000000
03FF3F80
07FFBF80
0FFFFF80
1FFFFF80
3FFFFF80
7FFFFF80
FF80FF80
FF007F80
FE003F80
FC003F80
FC003F80
FC003F80
FC003F80
FC003F80
FC003F80
FC003F80
FC003F80
FC003F80
FC003F80
FC003F80
FC003F80
FC003F80
FE003F80
FF007F80
FF80FF80
7FFFFF80
3FFFFF80
1FFFFF80
0FFFFF80
07FFBF80
03FF3F80
ENDCHAR
STARTCHAR 00E4
ENCODING 228
SWIDTH 285 0
DWIDTH 28 0
BBX 25 43 0 0
BITMAP
1F81F800
1F81F800
1F81F800
1F81F800
1F81F800
1F81F800
00000000
00000000
00000000
00000000
00000000
00000000
03FF3F80
07FFBF80
0FFFFF80
1FFFFF80
3FFFFF80
7FFFFF80
FF80FF80
FF007F80
FE003F80
FC003F80
FC003F80
FC003F80
FC003F80
FC003F80
FC003F80
FC003F80
FC003F80
FC003F80
FC003F80
FC003F80
FC003F80
FC003F80
FE003F80
FF007F80
FF80FF80
7FFFFF80
3FFFFF80
1FFFFF80
0FFFFF80
07FFBF80
03FF3F80
ENDCHAR
STARTCHAR 00E5
ENCODING 229
SWIDTH 285 0
DWIDTH 28 0
BBX 25 49 0 0
BITMAP
007F0000
00FF8000
01FFC000
03C3C000
0381C000
0381C000
0381C000
0381C000
03C3C000
01FFC000
00FF8000
007F0000
00000000
00000000
00000000
00000000
00000000
00000000
03FF3F80
07FFBF80
0FFFFF80
1FFFFF80
3FFFFF80
7FFFFF80
FF80FF80
FF007F80
FE003F80
FC003F80
FC003F80
FC003F80
FC003F80
FC003F80
FC003F80
FC003F80
FC003F80
FC003F80
FC003F80
FC003F80
FC003F80
FC003F80
FE003F80
FF007F80
FF80FF80
7FFFFF80
3FFFFF80
1FFFFF80
0FFFFF80
07FFBF80
03FF3F80
ENDCHAR
STARTCHAR 00E7
ENCODING 231
SWIDTH 285 0
DWIDTH 28 0
BBX 25 42 0 -11
BITMAP
03FFE000
07FFF000
0FFFF800
1FFFFC00
3FFFFE00
7FFFFF00
FF80FF80
FF007F80
FE003F80
FC003F80
FC003F80
FC000000
FC000000
FC000000
FC000000
FC000000
FC000000
FC000000
FC000000
FC000000
FC003F80
FC003F80
FE003F80
FF007F80
FF80FF80
7FFFFF00
3FFFFE00
1FFFFC00
0FFFF800
07FFF000
03FFE000
007E0000
007E0000
003F0000
001F8000
000FC000
000FC000
03FFC000
03FFC000
03FFC000
03FF8000
03FF0000
ENDCHAR
STARTCHAR 00E8
ENCODING 232
SWIDTH 285 0
DWIDTH 28 0
BBX 25 52 0 0
BITMAP
03E00000
01E00000
01F00000
00F00000
00F80000
00780000
007C0000
003C0000
003E0000
001E0000
001F0000
000F0000
000F8000
00078000
0007C000
00000000
00000000
00000000
00000000
00000000
00000000
03FFE000
07FFF000
0FFFF800
1FFFFC00
3FFFFE00
7FFFFF00
FF80FF80
FF007F80
FE007F80
FC003F80
FC003F80
FC003F80
FC003F80
FFFFFF80
FFFFFF80
FFFFFF80
FFFFFF80
FFFFFF80
FFFFFF80
FC000000
FC000000
FC000000
FE003F80
FF007F80
FF80FF80
7FFFFF00
3FFFFE00
1FFFFC00
0FFFF800
07FFF000
03FFE000
ENDCHAR
STARTCHAR 00E9
ENCODING 233
SWIDTH 285 0
DWIDTH 28 0
BBX 25 52 0 0
BITMAP
0003C000
0007C000
00078000
000F8000
000F0000
001F0000
001E0000
003E0000
003C0000
007C0000
00780000
00F80000
00F00000
01F00000
01E00000
02000000
00000000
00000000
00000000
00000000
00000000
03FFE000
07FFF000
0FFFF800
1FFFFC00
3FFFFE00
7FFFFF00
FF80FF80
FF007F80
FE007F80
FC003F80
FC003F80
FC003F80
FC003F80
FFFFFF80
FFFFFF80
FFFFFF80
FFFFFF80
FFFFFF80
FFFFFF80
FC000000
FC000000
FC000000
FE003F80
FF007F80
FF80FF80
7FFFFF00
3FFFFE00
1FFFFC00
0FFFF800
07FFF000
03FFE000
ENDCHAR
STARTCHAR 00EA
ENCODING 234
SWIDTH 285 0
DWIDTH 28 0
BBX 25 52 0 0
BITMAP
00080000
00180000
001C0000
003C0000
003E0000
007E0000
007F0000
00FF0000
00FF8000
01F78000
01E7C000
03E3C000
03C3E000
07C1E000
0781F000
00000000
00000000
00000000
00000000
00000000
00000000
03F00000
07FFE000
0FFFF000
1FFFF800
3FFFFC00
7FFFFE00
FFFFFF00
FF80FF80
FF007F80
FE003F80
FC003F80
FC003F80
FC003F80
FFFFFF80
FFFFFF80
FFFFFF80
FFFFFF80
FFFFFF80
FFFFFF80
FC000000
FC000000
FC000000
FE003F80
FF007F80
FF80FF80
7FFFFF00
3FFFFE00
1FFFFC00
0FFFF800
07FFF000
03FFE000
ENDCHAR
STARTCHAR 00EB
ENCODING 235
SWIDTH 285 0
DWIDTH 28 0
BBX 25 43 0 0
BITMAP
1F81F800
1F81F800
1F81F800
1F81F800
1F81F800
1F81F800
00000000
00000000
00000000
00000000
00000000
00000000
03FFE000
07FFF000
0FFFF800
1FFFFC00
3FFFFE00
7FFFFF00
FF80FF80
FF007F80
FE007F80
FC003F80
FC003F80
FC003F80
FC003F80
FFFFFF80
FFFFFF80
FFFFFF80
FFFFFF80
FFFFFF80
FFFFFF80
FC000000
FC000000
FC000000
FE003F80
FF007F80
FF80FF80
7FFFFF00
3FFFFE00
1FFFFC00
0FFFF800
07FFF000
03FFE000
ENDCHAR
STARTCHAR 00EC
ENCODING 236
SWIDTH 285 0
DWIDTH 28 0
BBX 25 52 0 0
BITMAP
03E00000
01E00000
01F00000
00F00000
00F80000
00780000
007C0000
003C0000
003E0000
001E0000
001F0000
000F0000
000F8000
00078000
0007C000
00000000
00000000
00000000
00000000
00000000
00000000
03FE0000
03FE0000
03FE0000
03FE0000
03FE0000
03FE0000
03FE0000
007E0000
007E0000
007E0000
007E0000
007E0000
007E0000
007E0000
007E0000
007E0000
007E0000
007E0000
007E0000
007E0000
007E0000
007E0000
007E0000
007E0000
007E0000
FFFFFF80
FFFFFF80
FFFFFF80
FFFFFF80
FFFFFF80
FFFFFF80
ENDCHAR
STARTCHAR 00ED
ENCODING 237
SWIDTH 285 0
DWIDTH 28 0
BBX 25 52 0 0
BITMAP
0003C000
0007C000
00078000
000F8000
000F0000
001F0000
001E0000
003E0000
003C0000
007C0000
00780000
00F80000
00F00000
01F00000
01E00000
02000000
00000000
00000000
00000000
00000000
00000000
03FE0000
03FE0000
03FE0000
03FE0000
03FE0000
03FE0000
03FE0000
007E0000
007E0000
007E0000
007E0000
007E0000
007E0000
007E0000
007E0000
007E0000
007E0000
007E0000
007E0000
007E0000
007E0000
007E0000
007E0000
007E0000
007E0000
FFFFFF80
FFFFFF80
FFFFFF80
FFFFFF80
FFFFFF80
FFFFFF80
ENDCHAR
STARTCHAR 00EE
ENCODING 238
SWIDTH 285 0
DWIDTH 28 0
BBX 25 52 0 0
BITMAP
00080000
00180000
001C0000
003C0000
003E0000
007E0000
007F0000
00FF0000
00FF8000
01F78000
01E7C000
03E3C000
03C3E000
07C1E000
0781F000
00000000
00000000
00000000
00000000
00000000
00000000
03FE0000
03FE0000
03FE0000
03FE0000
03FE0000
03FE0000
007E0000
007E0000
007E0000
007E0000
007E0000
007E0000
007E0000
007E0000
007E0000
007E0000
007E0000
007E0000
007E0000
007E0000
007E0000
007E0000
007E0000
007E0000
007E0000
FFFFFF80
FFFFFF80
FFFFFF80
FFFFFF80
FFFFFF80
FFFFFF80
ENDCHAR
STARTCHAR 00EF
ENCODING 239
SWIDTH 285 0
DWIDTH 28 0
BBX 25 43 0 0
BITMAP
1F81F800
1F81F800
1F81F800
1F81F800
1F81F800
1F81F800
00000000
00000000
00000000
00000000
00000000
00000000
03FE0000
03FE0000
03FE0000
03FE0000
03FE0000
03FE0000
03FE0000
007E0000
007E0000
007E0000
007E0000
007E0000
007E0000
007E0000
007E0000
007E0000
007E0000
007E0000
007E0000
007E0000
007E0000
007E0000
007E0000
007E0000
007E0000
FFFFFF80
FFFFFF80
FFFFFF80
FFFFFF80
FFFFFF80
FFFFFF80
ENDCHAR
STARTCHAR 00F0
ENCODING 240
SWIDTH 285 0
DWIDTH 28 0
BBX 25 46 0 0
BITMAP
00800000
03C00000
0FC00000
1FE06000
0FE0E000
0FF3F000
07FFF000
07FFF800
03FFF800
03FFF800
0FFFE000
3FFF8000
FFFE0000
FFFF0000
7FFF0000
7FFF8000
3F3F8000
3C3FC000
101FC000
001FE000
000FE000
000FF000
03FFF000
07FFF800
0FFFF800
1FFFFC00
3FFFFC00
7FFFFE00
FF80FE00
FF00FF00
FE007F00
FC007F80
FC003F80
FC003F80
FC003F80
FC003F80
FC003F80
FE003F80
FF007F80
FF80FF80
FFFFFF00
3FFFFE00
1FFFFC00
0FFFF800
07FFF000
03FFE000
ENDCHAR
STARTCHAR 00F1
ENCODING 241
SWIDTH 285 0
DWIDTH 28 0
BBX 25 49 0 0
BITMAP
03C07800
07E07800
0FF07800
1FF87800
1FFC7800
1FFE7800
1F3FF800
1F1FF800
1F0FF800
1F07F800
1F03F000
1F01E000
00000000
00000000
00000000
00000000
00000000
00000000
FC7FE000
FCFFF000
FDFFF800
FFFFFC00
FFFFFE00
FFFFFF00
FF80FF80
FF007F80
FE003F80
FC003F80
FC003F80
FC003F80
FC003F80
FC003F80
FC003F80
FC003F80
FC003F80
FC003F80
FC003F80
FC003F80
FC003F80
FC003F80
FC003F80
FC003F80
FC003F80
FC003F80
FC003F80
FC003F80
FC003F80
FC003F80
FC003F80
ENDCHAR
STARTCHAR 00F2
ENCODING 242
SWIDTH 285 0
DWIDTH 28 0
BBX 25 52 0 0
BITMAP
03E00000
01E00000
01F00000
00F00000
00F80000
00780000
007C0000
003C0000
003E0000
001E0000
001F0000
000F0000
000F8000
00078000
0007C000
00000000
00000000
00000000
00000000
00000000
00000000
03FFE000
07FFF000
0FFFF800
1FFFFC00
3FFFFE00
7FFFFF00
FF80FF80
FF007F80
FE003F80
FC003F80
FC003F80
FC003F80
FC003F80
FC003F80
FC003F80
FC003F80
FC003F80
FC003F80
FC003F80
FC003F80
FC003F80
FC003F80
FE003F80
FF007F80
FF80FF80
7FFFFF00
3FFFFE00
1FFFFC00
0FFFF800
07FFF000
03FFE000
ENDCHAR
STARTCHAR 00F3
ENCODING 243
SWIDTH 285 0
DWIDTH 28 0
BBX 25 52 0 0
BITMAP
0003C000
0007C000
00078000
000F8000
000F0000
001F0000
001E0000
003E0000
003C0000
007C0000
00780000
00F80000
00F00000
01F00000
01E00000
02000000
00000000
00000000
00000000
00000000
00000000
03FFE000
07FFF000
0FFFF800
1FFFFC00
3FFFFE00
7FFFFF00
FF80FF80
FF007F80
FE003F80
FC003F80
FC003F80
FC003F80
FC003F80
FC003F80
FC003F80
FC003F80
FC003F80
FC003F80
FC003F80
FC003F80
FC003F80
FC003F80
FE003F80
FF007F80
FF80FF80
7FFFFF00
3FFFFE00
1FFFFC00
0FFFF800
07FFF000
03FFE000
ENDCHAR
STARTCHAR 00F4
ENCODING 244
SWIDTH 285 0
DWIDTH 28 0
BBX 25 52 0 0
BITMAP
00080000
00180000
001C0000
003C0000
003E0000
007E0000
007F0000
00FF0000
00FF8000
01F78000
01E7C000
03E3C000
03C3E000
07C1E000
0781F000
00000000
00000000
00000000
00000000
00000000
00000000
03FFE000
07FFF000
0FFFF800
1FFFFC00
3FFFFE00
7FFFFF00
FF80FF80
FF007F80
FE003F80
FC003F80
FC003F80
FC003F80
FC003F80
FC003F80
FC003F80
FC003F80
FC003F80
FC003F80
FC003F80
FC003F80
FC003F80
FC003F80
FE003F80
FF007F80
FF80FF80
7FFFFF00
3FFFFE00
1FFFFC00
0FFFF800
07FFF000
03FFE000
ENDCHAR
STARTCHAR 00F5
ENCODING 245
SWIDTH 285 0
DWIDTH 28 0
BBX 25 49 0 0
BITMAP
03C07800
07E07800
0FF07800
1FF87800
1FFC7800
1FFE7800
1F3FF800
1F1FF800
1F0FF800
1F07F800
1F03F000
1F01E000
00000000
00000000
00000000
00000000
00000000
00000000
03FFE000
07FFF000
0FFFF800
1FFFFC00
3FFFFE00
7FFFFF00
FF80FF80
FF007F80
FE003F80
FC003F80
FC003F80
FC003F80
FC003F80
FC003F80
FC003F80
FC003F80
FC003F80
FC003F80
FC003F80
FC003F80
FC003F80
FC003F80
FE003F80
FF007F80
FF80FF80
7FFFFF00
3FFFFE00
1FFFFC00
0FFFF800
07FFF000
03FFE000
ENDCHAR
STARTCHAR 00F6
ENCODING 246
SWIDTH 285 0
DWIDTH 28 0
BBX 25 43 0 0
BITMAP
1F81F800
1F81F800
1F81F800
1F81F800
1F81F800
1F81F800
00000000
00000000
00000000
00000000
00000000
00000000
03FFE000
07FFF000
0FFFF800
1FFFFC00
3FFFFE00
7FFFFF00
FF80FF80
FF007F80
FE003F80
FC003F80
FC003F80
FC003F80
FC003F80
FC003F80
FC003F80
FC003F80
FC003F80
FC003F80
FC003F80
FC003F80
FC003F80
FC003F80
FE003F80
FF007F80
FF80FF80
7FFFFF00
3FFFFE00
1FFFFC00
0FFFF800
07FFF000
03FFE000
ENDCHAR
STARTCHAR 00F7
ENCODING 247
SWIDTH 285 0
DWIDTH 28 0
BBX 25 31 0 6
BITMAP
007E0000
007E0000
007E0000
007E0000
007E0000
007E0000
00000000
00000000
00000000
00000000
00000000
00000000
00000000
FFFFFF80
FFFFFF80
FFFFFF80
FFFFFF80
FFFFFF80
FFFFFF80
00000000
00000000
00000000
00000000
00000000
00000000
007E0000
007E0000
007E0000
007E0000
007E0000
007E0000
ENDCHAR
STARTCHAR 00F8
ENCODING 248
SWIDTH 285 0
DWIDTH 28 0
BBX 25 31 0 0
BITMAP
03FFE000
07FFF000
0FFFF800
1FFFFC00
3FFFFE00
7FFFFF00
FF83FF80
FF07FF80
FE07FF80
FC0FFF80
FC0FFF80
FC1FBF80
FC1FBF80
FC3F3F80
FC3F3F80
FC7E3F80
FC7E3F80
FCFC3F80
FCFC3F80
FDF83F80
FDF83F80
FFF03F80
FFF03F80
FFE07F80
FFE0FF80
7FFFFF00
3FFFFE00
1FFFFC00
0FFFF800
07FFF000
03FFE000
ENDCHAR
STARTCHAR 00F9
ENCODING 249
SWIDTH 285 0
DWIDTH 28 0
BBX 25 52 0 0
BITMAP
03E00000
01E00000
01F00000
00F00000
00F80000
00780000
007C0000
003C0000
003E0000
001E0000
001F0000
000F0000
000F8000
00078000
0007C000
00000000
00000000
00000000
00000000
00000000
00000000
FC003F80
FC003F80
FC003F80
FC003F80
FC003F80
FC003F80
FC003F80
FC003F80
FC003F80
FC003F80
FC003F80
FC003F80
FC003F80
FC003F80
FC003F80
FC003F80
FC003F80
FC003F80
FC003F80
FC003F80
FC003F80
FC003F80
FE003F80
FF007F80
FF80FF80
FFFFFF80
3FFFFF80
1FFFFF80
0FFFFF80
07FFBF80
03FF3F80
ENDCHAR
STARTCHAR 00FA
ENCODING 250
SWIDTH 285 0
DWIDTH 28 0
BBX 25 52 0 0
BITMAP
0003C000
0007C000
00078000
000F8000
000F0000
001F0000
001E0000
003E0000
003C0000
007C0000
00780000
00F80000
00F00000
01F00000
01E00000
02000000
00000000
00000000
00000000
00000000
00000000
FC003F80
FC003F80
FC003F80
FC003F80
FC003F80
FC003F80
FC003F80
FC003F80
FC003F80
FC003F80
FC003F80
FC003F80
FC003F80
FC003F80
FC003F80
FC003F80
FC003F80
FC003F80
FC003F80
FC003F80
FC003F80
FC003F80
FE003F80
FF007F80
FF80FF80
FFFFFF80
3FFFFF80
1FFFFF80
0FFFFF80
07FFBF80
03FF3F80
ENDCHAR
STARTCHAR 00FB
ENCODING 251
SWIDTH 285 0
DWIDTH 28 0
BBX 25 52 0 0
BITMAP
00080000
00180000
001C0000
003C0000
003E0000
007E0000
007F0000
00FF0000
00FF8000
01F78000
01E7C000
03E3C000
03C3E000
07C1E000
0781F000
00000000
00000000
00000000
00000000
00000000
00000000
FC003F80
FC003F80
FC003F80
FC003F80
FC003F80
FC003F80
FC003F80
FC003F80
FC003F80
FC003F80
FC003F80
FC003F80
FC003F80
FC003F80
FC003F80
FC003F80
FC003F80
FC003F80
FC003F80
FC003F80
FC003F80
FC003F80
FE003F80
FF007F80
FF80FF80
7FFFFF80
3FFFFF80
1FFFFF80
0FFFFF80
07FFBF80
03FF3F80
ENDCHAR
STARTCHAR 00FC
ENCODING 252
SWIDTH 285 0
DWIDTH 28 0
BBX 25 43 0 0
BITMAP
1F81F800
1F81F800
1F81F800
1F81F800
1F81F800
1F81F800
00000000
00000000
00000000
00000000
00000000
00000000
FC003F80
FC003F80
FC003F80
FC003F80
FC003F80
FC003F80
FC003F80
FC003F80
FC003F80
FC003F80
FC003F80
FC003F80
FC003F80
FC003F80
FC003F80
FC003F80
FC003F80
FC003F80
FC003F80
FC003F80
FC003F80
FC003F80
FE003F80
FF007F80
FF80FF80
FFFFFF80
3FFFFF80
1FFFFF80
0FFFFF80
07FFBF80
03FF3F80
ENDCHAR
STARTCHAR 00FD
ENCODING 253
SWIDTH 285 0
DWIDTH 28 0
BBX 25 67 0 -15
BITMAP
0003C000
0007C000
00078000
000F8000
000F0000
001F0000
001E0000
003E0000
007C0000
007C0000
00F80000
00F80000
01F00000
01F00000
03E00000
00000000
00000000
00000000
00000000
00000000
00000000
FC003F80
FC003F80
FC003F80
FC003F80
FC003F80
FC003F80
FC003F80
FC003F80
FC003F80
FC003F80
FC003F80
FC003F80
FC003F00
7E003F00
7E007E00
3F007E00
3F00FC00
1F80FC00
1F81F800
0FC1F800
0FC3F000
07E3F000
07E7E000
03F7E000
03FFC000
01FFC000
01FF8000
00FF8000
00FF0000
007F0000
007E0000
007E0000
00FC0000
00FC0000
01F80000
01F80000
03F00000
03F00000
07E00000
07E00000
0FC00000
0FC00000
1F800000
1F800000
3F000000
3F000000
ENDCHAR
STARTCHAR 00FE
ENCODING 254
SWIDTH 285 0
DWIDTH 28 0
BBX 25 58 0 -15
BITMAP
FC000000
FC000000
FC000000
FC000000
FC000000
FC000000
FC000000
FC000000
FC000000
FC000000
FC000000
FC000000
FC7FE000
FCFFF000
FDFFF800
FFFFFC00
FFFFFE00
FFFFFF00
FF80FF80
FF007F80
FE003F80
FC003F80
FC003F80
FC003F80
FC003F80
FC003F80
FC003F80
FC003F80
FC003F80
FC003F80
FC003F80
FC003F80
FC003F80
FC003F80
FE003F80
FF007F80
FF80FF80
FFFFFF00
FFFFFE00
FFFFFC00
FDFFF800
FCFFF000
FC7FE000
FC000000
FC000000
FC000000
FC000000
FC000000
FC000000
FC000000
FC000000
FC000000
FC000000
FC000000
FC000000
FC000000
FC000000
FC000000
ENDCHAR
STARTCHAR 00FF
ENCODING 255
SWIDTH 285 0
DWIDTH 28 0
BBX 25 58 0 -15
BITMAP
1F81F800
1F81F800
1F81F800
1F81F800
1F81F800
1F81F800
00000000
00000000
00000000
00000000
00000000
00000000
FC003F80
FC003F80
FC003F80
FC003F80
FC003F80
FC003F80
FC003F80
FC003F80
FC003F80
FC003F80
FC003F80
FC003F80
FC003F00
7E003F00
7E007E00
3F007E00
3F00FC00
1F80FC00
1F81F800
0FC1F800
0FC3F000
07E3F000
07E7E000
03F7E000
03FFC000
01FFC000
01FF8000
00FF8000
00FF0000
007F0000
007E0000
007E0000
00FC0000
00FC0000
01F80000
01F80000
03F00000
03F00000
07E00000
07E00000
0FC00000
0FC00000
1F800000
1F800000
3F000000
3F000000
ENDCHAR
STARTCHAR 0153
ENCODING 339
SWIDTH 285 0
DWIDTH 28 0
BBX 25 30 0 0
BITMAP
03C1E000
07E3F000
0FF7F800
1FFFFC00
3FFFFE00
7FFFFF00
FFFFFF80
FEFF7F80
FC7E3F80
FC7E3F80
FC7E3F80
FC7E3F80
FC7FFF80
FC7FFF80
FC7FFF80
FC7FFF80
FC7FFF80
FC7FFF80
FC7E0000
FC7E0000
FC7E0000
FEFF3F80
FFFFFF80
FFFFFF80
FFFFFF00
3FFFFE00
1FFFFC00
0FF7F800
07E3F000
03C1E000
ENDCHAR
STARTCHAR 0160
ENCODING 352
SWIDTH 285 0
DWIDTH 28 0
BBX 25 64 0 0
BITMAP
0781F000
07C1E000
03C3E000
03E3C000
01E7C000
01F78000
00FF8000
00FF0000
007F0000
007E0000
003E0000
003C0000
001C0000
00180000
00080000
00000000
00000000
00000000
00000000
00000000
00000000
03FFE000
07FFF000
0FFFF800
1FFFFC00
3FFFFE00
7FFFFF00
FF80FF80
FF007F80
FE003F80
FC003F80
FC003F80
FC003F80
FC000000
FC000000
FC000000
FC000000
FE000000
FF000000
FF800000
7FFFE000
3FFFF000
1FFFF800
0FFFFC00
07FFFE00
03FFFF00
0000FF80
00007F80
00003F80
00003F80
00003F80
00003F80
FC003F80
FC003F80
FC003F80
FE003F80
FF007F80
FF80FF80
FFFFFF00
3FFFFE00
1FFFFC00
0FFFF800
07FFF000
03FFE000
ENDCHAR
STARTCHAR 0161
ENCODING 353
SWIDTH 285 0
DWIDTH 28 0
BBX 25 52 0 0
BITMAP
0781F000
07C1E000
03C3E000
03E3C000
01E7C000
01F78000
00FF8000
00FF0000
007F0000
007E0000
003E0000
003C0000
001C0000
00180000
00080000
00000000
00000000
00000000
00000000
00000000
00000000
03FFE000
07FFF000
0FFFF800
1FFFFC00
3FFFFE00
7FFFFF00
FF80FF80
FF007F80
FE003F80
FC003F80
FE003F80
FF000000
FF800000
7FFFE000
3FFFF000
1FFFF800
0FFFFC00
07FFFE00
03FFFF00
0000FF80
FC007F80
FC003F80
FE003F80
FF007F80
FF80FF80
FFFFFF00
3FFFFE00
1FFFFC00
0FFFF800
07FFF000
03FFE000
ENDCHAR
STARTCHAR 0178
ENCODING 376
SWIDTH 285 0
DWIDTH 28 0
BBX 25 55 0 0
BITMAP
1F81F800
1F81F800
1F81F800
1F81F800
1F81F800
1F81F800
00000000
00000000
00000000
00000000
00000000
00000000
FC003F80
FC003F80
FC003F80
FC003F00
7E003F00
7E007E00
3F007E00
3F00FC00
1F80FC00
1F81F800
0FC1F800
0FC3F000
07E3F000
07E7E000
03F7E000
03FFC000
01FFC000
01FF8000
00FF8000
00FF0000
007F0000
007E0000
007E0000
007E0000
007E0000
007E0000
007E0000
007E0000
007E0000
007E0000
007E0000
007E0000
007E0000
007E0000
007E0000
007E0000
007E0000
007E0000
007E0000
007E0000
007E0000
007E0000
007E0000
ENDCHAR
STARTCHAR 017D
ENCODING 381
SWIDTH 285 0
DWIDTH 28 0
BBX 25 64 0 0
BITMAP
0781F000
07C1E000
03C3E000
03E3C000
01E7C000
01F78000
00FF8000
00FF0000
007F0000
007E0000
003E0000
003C0000
001C0000
00180000
00080000
00000000
00000000
00000000
00000000
00000000
00000000
FFFFFF80
FFFFFF80
FFFFFF80
FFFFFF00
FFFFFF00
FFFFFE00
00007E00
0000FC00
0000FC00
0001F800
0001F800
0003F000
0003F000
0007E000
0007E000
000FC000
000FC000
001F8000
001F8000
003F0000
003F0000
007E0000
007E0000
00FC0000
00FC0000
01F80000
01F80000
03F00000
03F00000
07E00000
07E00000
0FC00000
0FC00000
1F800000
1F800000
3F000000
3F000000
7FFFFF80
7FFFFF80
FFFFFF80
FFFFFF80
FFFFFF80
FFFFFF80
ENDCHAR
STARTCHAR 017E
ENCODING 382
SWIDTH 285 0
DWIDTH 28 0
BBX 25 52 0 0
BITMAP
0781F000
07C1E000
03C3E000
03E3C000
01E7C000
01F78000
00FF8000
00FF0000
007F0000
007E0000
003E0000
003C0000
001C0000
00180000
00080000
00000000
00000000
00000000
00000000
00000000
00000000
FFFFFF80
FFFFFF80
FFFFFF80
FFFFFF80
FFFFFF80
FFFFFF80
0000FF80
0001FF80
0003FF00
0007FE00
000FFC00
001FF800
003FF000
007FE000
00FFC000
00FF8000
01FF0000
03FE0000
07FC0000
0FF80000
1FF00000
3FE00000
7FC00000
FF800000
FF000000
FFFFFF80
FFFFFF80
FFFFFF80
FFFFFF80
FFFFFF80
FFFFFF80
ENDCHAR
STARTCHAR 0192
ENCODING 402
SWIDTH 285 0
DWIDTH 28 0
BBX 25 15 0 28
BITMAP
FF8F0780
FF8F0780
FF8F8F80
1C0F8F80
1C0FDF80
1C0FDF80
1C0EFF80
1C0EFF80
1C0E7780
1C0E7780
1C0E2780
1C0E2780
1C0E0780
1C0E0780
1C0E0780
ENDCHAR
STARTCHAR 2018
ENCODING 8216
SWIDTH 285 0
DWIDTH 28 0
BBX 6 15 9 28
BITMAP
04
0C
1C
1C
3C
38
78
70
F0
FC
FC
FC
FC
FC
FC
ENDCHAR
STARTCHAR 2019
ENCODING 8217
SWIDTH 285 0
DWIDTH 28 0
BBX 6 15 9 28
BITMAP
FC
FC
FC
FC
FC
FC
1C
3C
38
78
70
F0
E0
E0
C0
ENDCHAR
STARTCHAR 201C
ENCODING 8220
SWIDTH 285 0
DWIDTH 28 0
BBX 15 15 6 28
BITMAP
0C02
0C06
1C06
1C0E
3C0E
381C
701C
7038
E038
FC7E
FC7E
FC7E
FC7E
FC7E
FC7E
ENDCHAR
STARTCHAR 201D
ENCODING 8221
SWIDTH 285 0
DWIDTH 28 0
BBX 15 15 3 28
BITMAP
FC7E
FC7E
FC7E
FC7E
FC7E
FC7E
1C0E
380E
381C
701C
7038
E078
E070
C070
C060
ENDCHAR
STARTCHAR 2020
ENCODING 8224
SWIDTH 285 0
DWIDTH 28 0
BBX 18 58 3 -15
BITMAP
03F000
03F000
03F000
03F000
03F000
03F000
03F000
03F000
03F000
FFFFC0
FFFFC0
FFFFC0
FFFFC0
FFFFC0
FFFFC0
03F000
03F000
03F000
03F000
03F000
03F000
03F000
03F000
03F000
03F000
03F000
03F000
03F000
03F000
03F000
03F000
03F000
03F000
03F000
03F000
03F000
03F000
03F000
03F000
03F000
03F000
03F000
03F000
03F000
03F000
03F000
03F000
03F000
03F000
03F000
03F000
03F000
03F000
03F000
03F000
03F000
03F000
03F000
ENDCHAR
STARTCHAR 2022
ENCODING 8226
SWIDTH 285 0
DWIDTH 28 0
BBX 25 25 0 9
BITMAP
00080000
00080000
00180000
001C0000
003C0000
073E7000
07FFF000
07FFE000
03FFE000
03FFE000
0FFFF800
3FFFFE00
FFFFFF80
3FFFFE00
0FFFF800
03FFE000
03FFE000
07FFE000
07FFF000
073E7000
003C0000
001C0000
00180000
00080000
00080000
ENDCHAR
STARTCHAR 20AC
ENCODING 8364
SWIDTH 285 0
DWIDTH 28 0
BBX 25 43 0 0
BITMAP
000FE000
001FF000
003FF800
007FFC00
00FFFE00
01FFFF00
03F87F80
03F03F80
03F03F80
03F00000
03F00000
03F00000
1FFFFE00
3FFFFC00
3FFFFC00
7FFFF800
7FFFF800
FFFFF000
03F00000
03F00000
03F00000
03F00000
03F00000
03F00000
03F00000
1FFFF000
3FFFE000
3FFFE000
7FFFC000
7FFFC000
FFFF8000
03F00000
03F00000
03F00000
03F03F80
03F03F80
03F87F80
01FFFF00
00FFFE00
007FFC00
003FF800
001FF000
000FE000
ENDCHAR
STARTCHAR 2122
ENCODING 8482
SWIDTH 3214 0
DWIDTH 315 0
BBX 309 70 3 -6
BITMAP
FFFFFFFFFFFFFFFFFFFFFFFFFFFFFFFFFFFFFFFFFFFFFFFFFFFFFFFFFFFFFFFFFFFFFFFFFFFFF8
FFFFFFFFFFFFFFFFFFFFFFFFFFFFFFFFFFFFFFFFFFFFFFFFFFFFFFFFFFFFFFFFFFFFFFFFFFFFF8
FFFFFFFFFFFFFFFFFFFFFFFFFFFFFFFFFFFFFFFFFFFFFFFFFFFFFFFFFFFFFFFFFFFFFFFFFFFFF8
E00000000000000000000000000000000000000000000000000000000000000000000000000038
E00000000000000000000000000000000000000000000000000000000000000000000000000038
E00000000000000000000000000000000000000000000000000000000000000000000000000038
E00000000000000000000000000000000000000000000000000000000000000000000000000038
E00000000000000000000000000000000000000000000000000000000000000000000000000038
E00000000000000000000000000000000000000000000000000000000000000000000000000038
E00F0003E000000700070000001E00000000E0003801C70001E000070000000070000000000038
E01F8003E000000700070000001F00000000E0003801C70003F800070000000070000000000038
E03FC007E000000700070000001F80000000E0003801C70007F800070000000070000000000038
E071C0070000000700070000001DC000000000003801C7000E1800070000000070000000000038
E071C0070000000700070000001CE000000000003801C7000E0800070000000070000000000038
E071C0070000000700070000001C7000000000003801C7000E0000070000000070000000000038
E071C00FE1E0730FE0072071C01C70338E40E0783801C7000E001E07201E00F07303900F039038
E071C00FE3F07F8FE0077071C01C707F8FE0E0FC3801C7000E003FC7F03F01FC7F83F81F83F038
E07FC00FE7FC7FCFE007F871C01C70FF8FF0E1FE3801FF000FE07FC7F87F83FC7FC3FC3FC3F038
E07FC007071C7FC70007FC71C01C71FF8FF8E38E3801FF000FF8E1C7FC71C70C7FE3FE38E3E038
E07FC007071C79C700079C71C01C71E78F38E38E3801FF0003F8E0479C71C70479E3CE38E38038
E071C007071C71C700071C71C01C71E38E38E3FE3801C7000038E0071C7FC70071E38E3FE38038
E071C007071C71C700071C71C01C71E38E38E3FE3801C7000038E0071C7FC70071E38E3FE38038
E071C007071C71C700071C71C01CE1E38E38E3FE3801C7001038E0471C7FC70471E38E3FE38038
E071C007071C71C700079C71C01DC1E78E38E3803801C7000C38E1C71C70070C71E38E38038038
E071C00707F871C3E007F87FC01F80FF8E38E1FE3801C7700FF87FC71C7FC3FC71E38E3FE38038
E071C00703F071C3E007F03F801F007F8E38E0FC3801C7700FF03FC71C3F01FC71E38E1F838038
E071C00701E071C1E007201F801E00338E38E0783801C77003E01E071C1E00F071E38E0F038038
E00000000000000000000007000000000000000000000000000000000000000000000000000038
E00000000000000000000007000000000000000000000000000000000000000000000000000038
E0000000000000000000000E000000000000000000000000000000000000000000000000000038
E0000000000000000000000E000000000000000000000000000000000000000000000000000038
E0000000000000000000001C000000000000000000000000000000000000000000000000000038
E0000000000000000000001C000000000000000000000000000000000000000000000000000038
E00000000000000000000020000000000000000000000000000000000000000000000000000038
E00000000000000000000000000000000000000000000000000000000000000000000000000038
E00000000000000000000000000000000000000000000000000000000000000000000000000038
E00000000000000000000000000000000000000000000000000000000000000000000000000038
E00000000000000000000000000000000000000000000000000000000000000000000000000038
E00000000000000000000000000000000000000000000000000000000000000000000000000038
E00000000000000000000000000000000000000000000000000000000000000000000000000038
E0000000000000001E071C0000000000000000000000000000000000E381E00000000000000038
E0000000000000003E071C0000000000000000000000000000000000E381F00000000000000038
E0000000000000007E071C0000000000000000000000000000000000E381F80000000000000038
E000000000000000E0071C0F8000001C0000000E3800000070000000E380380000000000000038
E000000000000000E0071C1F8000001C0000000E3800000070000000E380380000000000000038
E000000000000000E0071C1F8000001C0000000E3800000070000000E380380000000000000038
E000000000000000E00000380000001C0000000E38000000700000000000380000000000000038
E000000000000000E00000380000001C0000000E38000000700000000000380000000000000038
E000000000000000E00000380000001C0000000E38000000700000000000380000000000000038
E000000000000000E000007F8783987F83E01E0E381E01F1FE0783C80000380000000000000038
E000000000000000E000007F8FC3FC7F87F83F0E383F03FDFE0FC3F80000380000000000000038
E000000000000000E000007F9FE3FE7F8FF87F8E387F87FDFE1FE3F80000380000000000000038
E000000000000000E000003838E3EF1C0E18E38E38F1C70C7038E3F00000380000000000000038
E000000000000000E000003838E38F1C0E08E38E38F1C7047038E3C00000380000000000000038
E000000000000000E000003838E38F1C0E00E38E38FFC7007038E3C00000380000000000000038
E000000000000000E000003838E38F1C0E00E38E38FFC7007038E3C00000380000000000000038
E000000000000000E000003838E38F1C0E00E38E38FFC7047038E3C00000380000000000000038
E000000000000000E000003838E38F1C0E18E38E38F0070C7038E3C00000380000000000000038
E0000000000000007E0000381FE38F1F8FF8FF8E387FC7FC7E1FE3C00001F80000000000000038
E0000000000000003E0000380FC38F1F87F83F0E383F03FC3E0FC3C00001F00000000000000038
E0000000000000001E00003807838F0F83E01E0E381E01F03E0783C00001E00000000000000038
E00000000000000000000000000000000000000000000000000000000000000000000000000038
E00000000000000000000000000000000000000000000000000000000000000000000000000038
E00000000000000000000000000000000000000000000000000000000000000000000000000038
E00000000000000000000000000000000000000000000000000000000000000000000000000038
E00000000000000000000000000000000000000000000000000000000000000000000000000038
E00000000000000000000000000000000000000000000000000000000000000000000000000038
FFFFFFFFFFFFFFFFFFFFFFFFFFFFFFFFFFFFFFFFFFFFFFFFFFFFFFFFFFFFFFFFFFFFFFFFFFFFF8
FFFFFFFFFFFFFFFFFFFFFFFFFFFFFFFFFFFFFFFFFFFFFFFFFFFFFFFFFFFFFFFFFFFFFFFFFFFFF8
FFFFFFFFFFFFFFFFFFFFFFFFFFFFFFFFFFFFFFFFFFFFFFFFFFFFFFFFFFFFFFFFFFFFFFFFFFFFF8
ENDCHAR
ENDFONT
